<svg xmlns="http://www.w3.org/2000/svg" xmlns:xlink="http://www.w3.org/1999/xlink" xmlns:lucid="lucid" width="1223.78" height="1506.78"><g transform="translate(150.35827750853593 -306.1666666666278)" lucid:page-tab-id="0_0"><path d="M106.67 332.67a6 6 0 0 1 6-6h484.6a6 6 0 0 1 6 6v1409.6a6 6 0 0 1-6 6h-484.6a6 6 0 0 1-6-6z" stroke="#b40c4c" fill="#fff" fill-opacity="0"/><path d="M116.8 336.8l.18-.22h35.38l.4.4v35.38l-.4.4h-35.38l-.4-.4v-35.38zm34.65 1.12l-.14-.1h-16.63c-15.1 0-16.68 0-16.8.06-.06.1-.06 1.7-.06 16.8v16.63l.12.15.14.1h33.2l.3-.28v-33.2zM121 347.97l.17-.2h11.58l.22.2.2.22v11.57l-.38.4h-11.63l-.18-.22-.22-.18v-11.62zm18.62 8.32c.65-.2 2.03-.2 2.6 0l.66.18c.1 0 .36.1.54.18.15.1.33.18.4.18s.14.03.18.1c.04.04.22.2.36.26.18.07.3.18.3.22l.2.14c.12.04.22.1.22.18.04.07.08.1.08.1.07 0 .58.52.58.55 0 .03.07.14.18.25.1.14.2.25.2.3 0 .02.1.17.16.24.1.1.18.24.18.28 0 .03.07.25.18.47.1.18.22.43.22.5 0 .08.07.33.14.58.22.66.22 2 0 2.64-.07.26-.14.5-.14.58 0 .18-.1.4-.22.5-.03.05-.1.23-.14.4-.08.15-.1.3-.15.3-.03 0-.1.1-.18.25-.07.1-.18.3-.3.4-.06.07-.13.18-.13.2 0 0-.18.23-.4.45-.22.22-.4.4-.44.4-.03 0-.1.07-.2.14l-.4.28c-.16.07-.26.15-.26.15 0 .03-.1.1-.3.14l-.4.18c-.1.1-.32.18-.5.18-.07 0-.32.07-.54.18-.7.23-2.03.23-2.68 0-.25-.1-.5-.17-.58-.17-.07 0-.28-.07-.5-.18-.22-.1-.4-.18-.47-.18-.04 0-.15-.07-.26-.18-.1-.12-.2-.2-.24-.2-.07 0-.18-.06-.3-.17l-.24-.18c-.07 0-.58-.5-.58-.58 0-.04-.04-.07-.1-.07-.08-.04-.15-.15-.2-.26-.06-.07-.1-.18-.13-.18s-.1-.1-.2-.3c-.08-.13-.2-.3-.27-.35-.03-.02-.1-.13-.1-.17 0-.07-.08-.25-.15-.43-.1-.15-.18-.4-.22-.55 0-.1-.1-.4-.18-.65-.18-.58-.18-1.88 0-2.53.1-.25.2-.58.22-.72.04-.2.1-.33.15-.37.03-.07.1-.2.14-.32.03-.15.13-.33.2-.44.12-.1.2-.2.2-.25 0-.07.46-.7.78-1 .3-.3.9-.8 1.02-.8.03 0 .14-.08.2-.15.12-.07.3-.18.45-.22.14-.04.3-.1.32-.18.04-.04.22-.07.37-.1l.68-.22zm-7.78-7.17l-.1-.14h-4.78c-4.27 0-4.77.02-4.88.1-.08.07-.08.57-.08 4.84v4.78l.1.14c.16.1.2.1 4.86.1h4.74l.15-.13.1-.15v-4.7c0-4.7 0-4.74-.1-4.85zm10.78-9.15c.22-.18.7-.33.7-.15 0 .04.06.08.17.15.1.03.17.14.2.22 0 .1.12.25.2.4.06.1.14.25.14.28 0 .08.07.18.14.3.07.1.18.28.22.43.03.12.1.26.18.33l.14.33c.04.1.1.3.18.4.1.1.2.25.2.36.02.07.1.22.2.36.07.1.15.25.15.32 0 .04.07.2.14.3.06.1.14.28.17.4.04.1.15.25.18.32.08.07.15.2.18.32.04.1.1.3.2.4.06.1.13.3.17.36.03.08.1.26.18.37.1.14.18.25.18.32 0 .03.03.17.1.28.1.1.2.3.22.4.04.14.1.3.18.36.08.04.15.18.15.3.04.1.15.28.23.4.07.1.14.28.18.38.04.1.15.3.22.37.08.1.1.24.1.28 0 .07.1.18.16.3.07.1.18.28.2.42.05.1.12.25.2.33.25.3.32.9.14 1.23-.04 0-.04.03-.04.07-.14.18-.57.18-6 .14h-5.43l-.14-.18c-.17-.23-.17-.88 0-1.1.08-.07.2-.25.22-.36.04-.1.1-.28.2-.4.06-.07.13-.2.13-.32.04-.1.15-.3.22-.4.1-.14.18-.32.18-.36 0-.07.03-.18.14-.25.06-.1.14-.28.17-.4.04-.1.1-.24.15-.3.07-.1.14-.23.18-.34.03-.15.14-.33.22-.4.07-.1.14-.25.14-.32.04-.1.1-.3.22-.44l.14-.32c0-.08.07-.2.15-.3.07-.07.18-.25.22-.35.02-.15.1-.3.13-.33.07-.07.14-.22.18-.36l.2-.36c.06-.1.14-.26.17-.37 0-.06.1-.24.18-.38.1-.15.18-.3.18-.37 0-.03.08-.18.15-.25.07-.1.18-.3.18-.4.03-.1.1-.25.18-.32.04-.04.15-.22.18-.33.04-.1.1-.3.18-.4.07-.07.15-.2.15-.32.03-.1.14-.3.2-.44.12-.1.2-.26.2-.33 0-.04.07-.18.18-.3zm-.36 17.54c-.43-.18-2.42-.14-2.67.04-.1.07-.3.14-.45.18-.18.04-.36.1-.47.18-.07.07-.22.15-.3.18-.13.04-.42.26-.93.76-.47.5-.7.76-.76.94-.04.08-.12.22-.2.3-.06.06-.13.28-.17.43-.04.18-.1.4-.18.5-.22.37-.15 2.8.07 2.8.04 0 .07.1.07.24.03.15.1.36.17.47.08.1.2.26.22.36.06.2.17.33.5.7.1.1.22.2.25.28.08.07.18.18.3.25.06.08.25.2.32.3.1.07.2.14.3.18.06.04.2.1.3.2.12.1.34.17.45.17.14.03.32.1.43.18.33.18 2.53.18 2.8 0 .1-.07.28-.15.38-.15.15-.03.37-.1.47-.18l.4-.25c.15-.07.22-.15.22-.15 0-.03.07-.07.1-.1.15-.04.95-.84.98-.98.04-.07.08-.1.1-.1.05 0 .12-.12.16-.23l.25-.42c.08-.1.16-.3.2-.44l.14-.4c.2-.25.18-2.45 0-2.78-.08-.1-.15-.32-.15-.43-.04-.1-.12-.33-.2-.44-.1-.12-.17-.26-.2-.33 0-.07-.1-.22-.2-.3-.06-.1-.2-.25-.28-.35-.07-.08-.18-.22-.25-.26-.04-.07-.18-.18-.3-.25-.35-.35-.5-.42-.68-.5-.08-.07-.26-.14-.37-.2-.1-.1-.32-.16-.43-.2-.15-.03-.25-.07-.25-.07 0-.03-.1-.07-.2-.1zm1.05-15.37c-.1-.14-.42-.04-.53.22-.07.07-.15.25-.18.36-.08.1-.16.25-.2.32-.03.1-.1.26-.17.37-.04.1-.1.25-.15.32-.07.07-.14.22-.18.33-.03.1-.1.25-.18.36l-.18.36c-.04.1-.14.28-.18.35l-.18.36c-.04.12-.15.3-.18.38l-.15.32c-.07.1-.14.25-.18.33-.03.07-.1.25-.18.36l-.15.3c-.08.1-.15.27-.22.38-.04.1-.1.3-.18.4-.04.07-.1.25-.18.36-.04.1-.1.25-.15.32-.07.07-.14.22-.18.33-.18.38-.32.64-.4.78-.14.26-.28.44-.2.55.06.25.96.2 4.3.2h3.97l.16-.1c.14-.14.07-.43-.1-.65-.1-.03-.16-.2-.2-.32-.03-.1-.1-.3-.2-.4-.08-.07-.12-.22-.12-.25 0-.07-.07-.2-.14-.32-.1-.14-.22-.33-.26-.47-.03-.13-.1-.24-.14-.28-.04-.04-.1-.18-.18-.33-.04-.15-.1-.33-.18-.4-.08-.07-.15-.22-.18-.33-.04-.14-.1-.32-.2-.4-.06-.1-.13-.2-.13-.3 0-.02-.07-.2-.14-.3-.1-.12-.2-.34-.23-.44-.07-.15-.15-.3-.18-.33-.05-.04-.12-.18-.16-.33-.07-.14-.14-.3-.2-.36-.05-.06-.12-.2-.16-.35-.03-.1-.14-.3-.22-.4-.07-.07-.14-.18-.14-.25s-.07-.22-.15-.33c-.07-.1-.18-.32-.2-.43-.05-.15-.12-.25-.16-.3z" stroke="#fff" stroke-opacity="0" fill="#fff"/><path d="M106.67 382.67v-56h56v56h-56zm46.14-45.7l-.44-.4h-35.4l-.16.23-.22.17v35.4l.4.44h35.44l.4-.38v-35.45zm-34.88.95c.06-.1 1.68-.1 16.75-.1h16.7l.1.1.1.12v33.26l-.27.28h-33.27l-.1-.1-.12-.13v-16.68c0-15.07 0-16.7.12-16.75zM133 348l-.24-.22h-11.6l-.16.22-.22.17v11.6l.22.22.17.2h11.6l.44-.38v-11.65zm9.23 8.3c-.56-.18-1.96-.18-2.58.05-.22.05-.56.1-.67.16-.17.07-.34.13-.4.13-.05.05-.16.1-.33.17-.1.05-.34.16-.4.22-.1.1-.22.17-.27.17-.06 0-.67.5-1 .77-.3.34-.8.95-.8 1 0 .06-.05.18-.16.3-.06.05-.17.27-.22.38-.06.17-.12.28-.17.34 0 .04-.06.2-.1.38-.07.1-.13.45-.24.73-.18.62-.18 1.97 0 2.53.1.22.16.5.16.67.06.1.1.33.22.5.12.17.17.4.17.45 0 .06.06.1.1.17.07.06.18.22.24.4.1.16.2.27.2.27.07 0 .12.1.18.16 0 .1.1.22.17.22l.1.12c0 .05.5.55.57.55 0 0 .1.12.28.23.1.06.22.17.28.17 0 0 .1.05.22.16.1.13.23.18.28.18.06 0 .28.12.45.23.22.06.45.17.56.17.05 0 .33.06.55.17.62.23 2.02.23 2.63 0 .28-.1.5-.17.62-.17.17 0 .4-.1.5-.16 0-.05.23-.16.4-.22.16 0 .27-.1.27-.1 0-.06.12-.12.23-.18.1-.05.33-.22.4-.28.1-.1.22-.17.22-.17.05 0 .22-.16.44-.4.23-.2.4-.38.4-.44 0 0 .05-.1.16-.2.06-.06.23-.3.28-.4.06-.1.12-.22.17-.22 0 0 .1-.12.1-.3.07-.15.18-.38.24-.38.06-.1.18-.33.18-.5 0-.1.05-.34.16-.62.23-.6.23-2 0-2.63-.1-.22-.16-.5-.16-.56 0-.12-.12-.35-.17-.57-.1-.17-.22-.4-.22-.45 0-.05-.05-.17-.16-.28-.12-.1-.17-.22-.17-.22 0-.06-.12-.17-.17-.28-.1-.17-.22-.28-.22-.28 0-.06-.5-.56-.56-.56 0 0-.06-.06-.06-.1-.06-.07-.17-.13-.28-.18-.06-.06-.17-.1-.17-.17 0 0-.12-.1-.3-.2-.16-.07-.33-.18-.38-.24-.06-.05-.1-.1-.17-.1-.06 0-.28-.06-.45-.18-.16-.1-.4-.17-.5-.22-.17 0-.45-.06-.67-.17zm-20.1-7.18c.05-.1.55-.1 4.87-.1h4.75l.12.1c.1.12.1.17.1 4.88v4.7l-.1.17-.17.1H127c-4.7 0-4.77 0-4.88-.1l-.1-.12V354c0-4.32 0-4.82.1-4.88zm21.22-9.3c0-.05-.1-.05-.23-.05-.28 0-.67.34-.67.5 0 .06-.05.23-.17.34-.1.18-.16.35-.22.46 0 .06-.06.22-.1.33-.13.05-.18.22-.24.4l-.16.32c-.06.06-.12.17-.17.28 0 .12-.13.28-.18.4-.1.1-.17.22-.17.27 0 .06-.06.23-.17.34-.1.18-.16.35-.22.46 0 .06-.06.22-.1.33-.13.05-.18.22-.24.4-.05.1-.1.2-.16.27l-.17.33c0 .12-.13.28-.18.4-.1.1-.17.22-.17.27 0 .06-.06.23-.17.34-.1.18-.16.35-.22.46 0 .05-.06.22-.1.33-.13.05-.18.22-.24.4l-.16.32c-.06.06-.12.17-.17.28 0 .12-.13.28-.18.4-.1.1-.17.22-.17.28 0 .05-.06.22-.17.33-.1.18-.17.35-.22.46 0 .06-.06.22-.1.34-.13.05-.18.22-.24.4-.05.1-.1.27-.17.32-.22.23-.22.9-.05 1.12l.17.17h5.43c5.43 0 5.88 0 6-.16 0-.05.05-.05.05-.1.17-.3.1-.9-.17-1.2l-.17-.32c-.04-.17-.1-.34-.2-.45-.07-.1-.13-.22-.13-.28 0-.06-.05-.18-.1-.3-.12-.1-.17-.27-.23-.38-.06-.1-.1-.28-.22-.4-.06-.1-.12-.27-.17-.4 0-.1-.12-.2-.17-.26-.06-.12-.1-.23-.17-.34-.04-.17-.1-.34-.2-.45-.07-.1-.13-.22-.13-.28 0-.06-.05-.18-.16-.35-.05-.1-.16-.27-.16-.33-.06-.1-.1-.28-.17-.4-.1-.1-.17-.27-.22-.38 0-.12-.12-.23-.17-.3l-.17-.32c-.05-.17-.1-.34-.2-.45-.07-.1-.13-.22-.13-.28 0-.06-.05-.18-.16-.34-.05-.12-.16-.3-.16-.34-.06-.1-.1-.28-.17-.4-.1-.1-.17-.27-.22-.38 0-.12-.12-.23-.17-.3l-.17-.32c-.05-.17-.1-.34-.2-.45-.07-.1-.13-.22-.13-.28 0-.06-.05-.18-.16-.34-.05-.12-.16-.3-.16-.34-.06-.1-.1-.23-.23-.28-.1 0-.15-.06-.15-.1zM140 357.48c.77-.12 2.45 0 2.45.16 0 .06.1.06.28.12.1 0 .34.05.45.17.1.05.28.16.33.16.18.12.35.17.7.56.1.06.27.17.32.23.06.05.17.17.23.28.05.1.22.22.28.33.1.12.16.23.22.28 0 .06.06.23.17.34.1.1.17.33.17.45.04.1.1.33.16.44.22.27.22 2.5 0 2.8-.06.05-.12.22-.12.4-.05.1-.1.32-.22.44-.06.1-.17.28-.22.4-.06.1-.12.2-.17.2 0 0-.06.07-.06.12-.06.17-.84.95-1 1-.06 0-.12.07-.12.07 0 .05-.1.1-.22.17-.12.05-.28.16-.4.22-.1.1-.33.17-.44.22-.18 0-.35.06-.4.1-.28.24-2.53.24-2.8 0-.12-.04-.34-.1-.45-.15-.12 0-.34-.13-.45-.18-.1-.1-.28-.17-.34-.17-.05-.05-.17-.1-.28-.22-.1-.06-.22-.23-.33-.28-.12-.06-.23-.17-.28-.23-.06-.05-.17-.22-.23-.33-.4-.35-.45-.52-.56-.7 0-.04-.1-.2-.17-.32-.1-.1-.15-.34-.15-.45-.06-.17-.06-.28-.1-.28-.24 0-.3-2.4-.07-2.8.06-.1.1-.34.17-.5.05-.17.1-.34.16-.45.13-.06.18-.23.18-.28.06-.17.28-.45.8-.95.5-.5.77-.73.94-.8.06 0 .22-.04.28-.15.1-.06.28-.12.45-.17.16-.06.4-.12.44-.17.05-.06.28-.1.4-.1zm3-15.35c.3-.1.35-.05.46.34.05.1.17.28.22.4.1.16.17.27.17.33 0 .04.06.2.1.27.13.1.18.28.24.4.04.1.1.27.16.32.05.05.16.22.22.4 0 .15.1.27.1.32.07.06.12.17.18.28.05.17.17.34.22.45.1.17.17.28.17.34 0 .04.06.2.1.27.13.1.18.28.24.4.04.1.1.27.16.32.05.05.16.22.22.4 0 .16.1.27.1.32.07.06.12.17.18.28.06.17.17.34.22.45.12.17.17.28.17.34 0 .04.06.2.1.27.13.1.18.28.24.4.04.1.1.27.16.32.22.22.28.5.1.6l-.1.18h-3.98c-3.36 0-4.26 0-4.37-.22 0-.17.12-.34.23-.56.12-.12.23-.4.45-.8 0-.1.12-.27.17-.32 0-.06.1-.23.17-.34 0-.1.1-.28.17-.34.04-.1.1-.28.16-.4.05-.16.16-.33.22-.38 0-.06.1-.23.1-.34.07-.1.18-.28.18-.33.06-.06.17-.23.22-.34 0-.1.12-.27.17-.32 0-.06.1-.23.17-.34 0-.1.1-.28.17-.4.04-.05.1-.22.16-.33.05-.16.16-.32.22-.38 0-.06.1-.23.1-.34.07-.1.18-.28.18-.33.06-.06.17-.23.22-.34 0-.1.12-.27.17-.32 0-.06.1-.23.17-.34 0-.1.1-.28.17-.4.04-.05.1-.16.2-.22z" stroke="#fff" stroke-opacity="0" fill="#b40c4c"/><use xlink:href="#a" transform="matrix(1,0,0,1,177.66666666662786,346.66666666662786) translate(0 14.4)"/><use xlink:href="#b" transform="matrix(1,0,0,1,177.66666666662786,346.66666666662786) translate(89.9 14.4)"/><path d="M732.92 332.67a6 6 0 0 1 6-6h308a6 6 0 0 1 6 6V1636.9a6 6 0 0 1-6 6h-308a6 6 0 0 1-6-6z" stroke="#b40c4c" fill="#fff" fill-opacity="0"/><path d="M743.05 336.8l.18-.22h35.38l.4.4v35.38l-.4.4h-35.37l-.4-.4v-35.38zm34.65 1.12l-.14-.1h-16.64c-15.1 0-16.68 0-16.8.06-.06.1-.06 1.7-.06 16.8v16.63l.1.15.15.1h33.22l.3-.28v-33.2zm-30.46 10.05l.18-.2H759l.22.2.22.22v11.57l-.4.4h-11.62l-.18-.22-.2-.18v-11.62zm18.63 8.32c.66-.2 2.03-.2 2.6 0l.66.18c.1 0 .36.1.54.18.15.1.33.18.4.18s.15.03.18.1c.04.04.22.2.36.26.2.07.3.18.3.22l.22.14c.1.04.22.1.22.18.03.07.07.1.07.1.08 0 .6.52.6.55 0 .03.06.14.17.25.1.14.22.25.22.3 0 .02.06.17.13.24.1.1.18.24.18.28 0 .03.08.25.2.47.1.18.2.43.2.5 0 .08.08.33.15.58.22.66.22 2 0 2.64-.07.26-.14.5-.14.58 0 .18-.1.4-.2.5-.04.05-.12.23-.15.4-.07.15-.1.3-.15.3-.03 0-.1.1-.18.25-.07.1-.18.3-.3.4-.06.07-.13.18-.13.2l-.4.45c-.23.22-.4.4-.44.4-.04 0-.1.07-.22.14l-.4.28c-.14.07-.25.15-.25.15 0 .03-.12.1-.3.14-.18.07-.33.15-.4.18-.1.1-.33.18-.5.18-.08 0-.33.07-.55.18-.68.23-2.02.23-2.67 0-.26-.1-.5-.17-.58-.17-.08 0-.3-.07-.5-.18-.23-.1-.4-.18-.48-.18-.04 0-.15-.07-.25-.18-.1-.12-.22-.2-.26-.2-.06 0-.17-.06-.28-.17l-.25-.18c-.07 0-.58-.5-.58-.58 0-.04-.05-.07-.12-.07-.07-.04-.14-.15-.18-.26-.07-.07-.1-.18-.14-.18-.04 0-.1-.1-.22-.3-.07-.13-.18-.3-.25-.35-.05-.02-.12-.13-.12-.17 0-.07-.07-.25-.15-.43-.1-.15-.18-.4-.2-.55 0-.1-.12-.4-.2-.65-.17-.58-.17-1.88 0-2.53.1-.25.2-.58.22-.72.04-.2.1-.33.15-.37.03-.07.1-.2.14-.32.04-.15.15-.33.22-.44.1-.1.18-.2.18-.25 0-.07.47-.7.8-1 .28-.3.9-.8 1-.8.04 0 .15-.08.23-.15.1-.07.28-.18.43-.22.14-.04.3-.1.33-.18.03-.04.2-.07.36-.1l.67-.22zm-7.77-7.17l-.1-.14h-4.8c-4.26 0-4.76.02-4.87.1-.07.07-.07.57-.07 4.84v4.78l.1.14c.15.1.2.1 4.85.1h4.75l.15-.13.1-.15v-4.7c0-4.7 0-4.74-.1-4.85zm10.78-9.15c.22-.18.7-.33.7-.15 0 .04.06.08.17.15.1.03.18.14.2.22 0 .1.12.25.2.4.07.1.14.25.14.28 0 .08.06.18.13.3.08.1.18.28.22.43.04.12.1.26.18.33l.15.33c.03.1.1.3.18.4.1.1.18.25.18.36.03.07.1.22.2.36.1.1.16.25.16.32 0 .04.07.2.14.3.08.1.15.28.18.4.04.1.15.25.2.32.06.07.13.2.17.32.02.1.1.3.17.4.07.1.14.3.18.36.03.08.1.26.18.37.1.14.18.25.18.32 0 .03.05.17.12.28.1.1.18.3.22.4.03.14.1.3.18.36.07.04.14.18.14.3.04.1.15.28.22.4.07.1.14.28.18.38.04.1.14.3.22.37.07.1.1.24.1.28 0 .07.08.18.15.3.07.1.18.28.22.42.03.1.1.25.18.33.25.3.32.9.14 1.23-.03 0-.03.03-.03.07-.15.18-.58.18-6 .14h-5.44l-.14-.18c-.18-.23-.18-.88 0-1.1.07-.07.18-.25.22-.36.03-.1.1-.28.18-.4.07-.07.14-.2.14-.32.04-.1.15-.3.22-.4.1-.14.18-.32.18-.36 0-.07.04-.18.14-.25.08-.1.15-.28.2-.4.02-.1.1-.24.13-.3.07-.1.14-.23.18-.34.04-.15.15-.33.22-.4.07-.1.14-.25.14-.32.05-.1.12-.3.23-.44l.14-.32c0-.08.08-.2.15-.3.07-.07.18-.25.22-.35.03-.15.1-.3.14-.33.07-.07.15-.22.18-.36l.18-.36c.08-.1.15-.26.18-.37 0-.06.1-.24.2-.38.1-.15.17-.3.17-.37 0-.03.06-.18.13-.25.07-.1.18-.3.18-.4.05-.1.12-.25.2-.32.03-.04.14-.22.17-.33.04-.1.1-.3.18-.4.08-.07.15-.2.15-.32l.22-.44c.1-.1.18-.26.18-.33 0-.04.07-.18.18-.3zm-.36 17.54c-.44-.18-2.43-.14-2.68.04-.07.07-.3.14-.44.18-.18.04-.36.1-.47.18-.07.07-.2.15-.28.18-.15.04-.44.26-.95.76-.47.5-.68.76-.75.94-.04.08-.1.22-.2.3-.06.06-.13.28-.17.43-.03.18-.1.4-.18.5-.22.37-.14 2.8.07 2.8.04 0 .08.1.08.24.03.15.1.36.18.47.07.1.18.26.22.36.07.2.17.33.5.7.1.1.22.2.25.28.08.07.18.18.3.25.07.08.25.2.32.3l.3.18c.06.04.2.1.3.2.12.1.34.17.45.17.14.03.32.1.43.18.33.18 2.54.18 2.8 0 .1-.07.28-.15.4-.15.13-.03.35-.1.46-.18l.4-.25c.14-.07.2-.15.2-.15 0-.03.08-.07.12-.1.15-.04.94-.84.98-.98.03-.07.07-.1.1-.1.04 0 .1-.12.15-.23.08-.1.2-.3.26-.42.08-.1.15-.3.18-.44l.15-.4c.2-.25.17-2.45 0-2.78-.08-.1-.16-.32-.16-.43-.03-.1-.1-.33-.18-.44-.1-.12-.18-.26-.2-.33 0-.07-.12-.22-.2-.3l-.28-.35c-.08-.08-.2-.22-.26-.26-.03-.07-.18-.18-.3-.25-.35-.35-.5-.42-.67-.5-.08-.07-.26-.14-.37-.2-.1-.1-.32-.16-.43-.2-.15-.03-.25-.07-.25-.07 0-.03-.1-.07-.18-.1zm1.05-15.37c-.1-.14-.44-.04-.55.22-.07.07-.14.25-.18.36-.07.1-.14.25-.18.32-.04.1-.1.26-.18.37l-.14.32c-.08.07-.15.22-.2.33-.02.1-.1.25-.17.36l-.18.36c-.04.1-.15.28-.2.35-.02.1-.13.3-.17.36-.04.12-.14.3-.18.38-.04.07-.1.2-.14.32-.07.1-.14.25-.18.33-.03.07-.1.25-.18.36-.03.1-.1.24-.14.3-.07.1-.15.27-.22.38-.03.1-.1.3-.18.4-.04.07-.1.25-.18.36l-.14.32c-.08.07-.15.22-.2.33-.17.38-.3.64-.38.78-.15.26-.3.44-.22.55.07.25.98.2 4.3.2h3.98l.15-.1c.15-.14.08-.43-.1-.65-.07-.03-.14-.2-.18-.32-.04-.1-.1-.3-.22-.4-.07-.07-.1-.22-.1-.25 0-.07-.08-.2-.15-.32-.1-.14-.22-.33-.25-.47-.04-.13-.1-.24-.15-.28-.04-.04-.1-.18-.18-.33-.04-.15-.1-.33-.18-.4-.08-.07-.16-.22-.2-.33-.03-.14-.1-.32-.17-.4-.08-.1-.15-.2-.15-.3 0-.02-.07-.2-.14-.3-.08-.12-.18-.34-.22-.44-.07-.15-.14-.3-.18-.33-.04-.04-.1-.18-.15-.33-.08-.14-.15-.3-.22-.36-.04-.06-.1-.2-.15-.35-.03-.1-.14-.3-.2-.4-.1-.07-.16-.18-.16-.25s-.07-.22-.14-.33c-.08-.1-.18-.32-.22-.43-.03-.15-.1-.25-.13-.3z" stroke="#fff" stroke-opacity="0" fill="#fff"/><path d="M732.92 382.67v-56h56v56h-56zm46.14-45.7l-.44-.4h-35.4l-.17.23-.22.17v35.4l.4.44h35.44l.4-.38v-35.45zm-34.88.95c.05-.1 1.68-.1 16.74-.1h16.7l.1.1.1.12v33.26l-.27.28H744.3l-.13-.1-.1-.13v-16.68c0-15.07 0-16.7.1-16.75zM759.23 348l-.23-.22h-11.58l-.16.22-.23.17v11.6l.23.22.16.2h11.6l.44-.38v-11.65zm9.24 8.3c-.56-.18-1.96-.18-2.58.05-.22.05-.56.1-.67.16-.17.07-.34.13-.4.13-.05.05-.16.1-.33.17-.1.05-.33.16-.4.22-.1.1-.2.17-.27.17-.06 0-.67.5-1 .77-.3.34-.8.95-.8 1 0 .06-.05.18-.16.3-.05.05-.17.27-.22.38-.06.17-.12.28-.17.34 0 .04-.06.2-.1.38-.07.1-.13.45-.24.73-.16.62-.16 1.97 0 2.53.12.22.17.5.17.67.07.1.12.33.24.5.1.17.16.4.16.45 0 .06.06.1.12.17.05.06.16.22.22.4.1.16.22.27.22.27.06 0 .12.1.17.16 0 .1.1.22.17.22l.1.12c0 .05.5.55.57.55 0 0 .1.12.28.23.1.06.23.17.28.17 0 0 .1.05.22.16.12.13.23.18.3.18.04 0 .26.12.43.23.23.06.45.17.56.17.06 0 .34.06.56.17.62.23 2.02.23 2.63 0 .3-.1.5-.17.62-.17.17 0 .4-.1.5-.16 0-.05.23-.16.4-.22.17 0 .28-.1.28-.1 0-.06.1-.12.22-.18.1-.05.34-.22.4-.28.1-.1.22-.17.22-.17.05 0 .22-.16.45-.4.22-.2.4-.38.4-.44 0 0 .04-.1.15-.2.06-.06.23-.3.3-.4.04-.1.1-.22.15-.22 0 0 .12-.12.12-.3.05-.15.16-.38.22-.38.05-.1.17-.33.17-.5 0-.1.05-.34.16-.62.22-.6.22-2 0-2.63-.12-.22-.17-.5-.17-.56 0-.12-.12-.35-.17-.57-.1-.17-.23-.4-.23-.45 0-.05-.05-.17-.16-.28-.12-.1-.17-.22-.17-.22 0-.06-.1-.17-.17-.28-.1-.17-.22-.28-.22-.28 0-.06-.5-.56-.55-.56 0 0-.06-.06-.06-.1-.06-.07-.18-.13-.3-.18-.05-.06-.16-.1-.16-.17 0 0-.1-.1-.28-.2-.16-.07-.33-.18-.4-.24-.04-.05-.1-.1-.16-.1-.05 0-.28-.06-.45-.18-.16-.1-.4-.17-.5-.22-.17 0-.45-.06-.67-.17zm-20.1-7.18c.05-.1.55-.1 4.87-.1H758l.12.1c.1.12.1.17.1 4.88v4.7l-.1.17-.17.1h-4.7c-4.7 0-4.76 0-4.88-.1l-.1-.12V354c0-4.32 0-4.82.1-4.88zm21.22-9.3c0-.05-.1-.05-.23-.05-.27 0-.67.34-.67.5 0 .06-.05.23-.17.34-.1.18-.16.35-.22.46 0 .06-.04.22-.1.33-.1.05-.17.22-.23.4l-.16.32c-.05.06-.1.17-.16.28 0 .12-.1.28-.17.4-.1.1-.17.22-.17.27 0 .06-.05.23-.16.34-.12.18-.17.35-.23.46 0 .06-.04.22-.1.33-.1.05-.17.22-.22.4l-.17.27-.16.33c0 .12-.1.28-.17.4-.1.1-.17.22-.17.27 0 .06-.05.23-.16.34-.12.18-.17.35-.23.46 0 .05-.04.22-.1.33-.1.05-.17.22-.23.4l-.16.32c-.05.06-.1.17-.16.28 0 .12-.1.28-.17.4-.1.1-.17.22-.17.28 0 .05-.05.22-.16.33-.12.18-.17.35-.23.46 0 .06-.05.22-.1.34-.1.05-.17.22-.23.4-.05.1-.1.27-.16.32-.22.23-.22.9-.05 1.12l.17.17h5.43c5.43 0 5.88 0 6-.16 0-.05.05-.05.05-.1.17-.3.1-.9-.17-1.2l-.17-.32c-.05-.17-.1-.34-.22-.45-.06-.1-.1-.22-.1-.28 0-.06-.07-.18-.13-.3-.1-.1-.15-.27-.2-.38-.07-.1-.12-.28-.23-.4-.06-.1-.12-.27-.17-.4 0-.1-.1-.2-.17-.26-.05-.12-.1-.23-.17-.34-.05-.17-.1-.34-.22-.45-.06-.1-.1-.22-.1-.28 0-.06-.07-.18-.18-.35-.06-.1-.17-.27-.17-.33-.06-.1-.12-.28-.18-.4-.1-.1-.16-.27-.22-.38 0-.12-.1-.23-.17-.3l-.17-.32c-.05-.17-.1-.34-.22-.45-.06-.1-.1-.22-.1-.28 0-.06-.07-.18-.18-.34-.06-.12-.17-.3-.17-.34-.06-.1-.12-.28-.18-.4-.1-.1-.17-.27-.22-.38 0-.12-.1-.23-.17-.3l-.17-.32c-.05-.17-.1-.34-.22-.45-.06-.1-.1-.22-.1-.28 0-.06-.07-.18-.18-.34-.06-.12-.17-.3-.17-.34-.07-.1-.12-.23-.23-.28-.12 0-.17-.06-.17-.1zm-3.36 17.65c.78-.12 2.46 0 2.46.16 0 .06.12.06.28.12.12 0 .34.05.45.17.1.05.28.16.34.16.16.12.33.17.67.56.1.06.28.17.33.23.06.05.17.17.23.28.05.1.22.22.28.33l.22.28c0 .06.06.23.17.34.1.1.17.33.17.45.05.1.1.33.17.44.23.27.23 2.5 0 2.8-.05.05-.1.22-.1.4-.06.1-.12.32-.23.44-.05.1-.17.28-.22.4-.06.1-.12.2-.17.2 0 0-.06.07-.06.12-.05.17-.84.95-1 1-.06 0-.12.07-.12.07 0 .05-.1.1-.22.17l-.4.22c-.1.1-.33.17-.44.22-.17 0-.34.06-.4.1-.27.24-2.5.24-2.8 0-.1-.04-.33-.1-.44-.15-.1 0-.34-.13-.45-.18-.1-.1-.28-.17-.34-.17-.04-.05-.15-.1-.26-.22-.12-.06-.23-.23-.34-.28-.1-.06-.23-.17-.28-.23-.06-.05-.17-.22-.23-.33-.4-.35-.45-.52-.57-.7 0-.04-.1-.2-.16-.32-.12-.1-.17-.34-.17-.45-.06-.17-.06-.28-.1-.28-.24 0-.3-2.4-.07-2.8.06-.1.1-.34.17-.5.05-.17.1-.34.17-.45.1-.06.16-.23.16-.28.06-.17.3-.45.8-.95.5-.5.77-.73.94-.8.06 0 .23-.04.28-.15.1-.06.28-.12.45-.17.17-.06.4-.12.45-.17.05-.06.28-.1.4-.1zm3.02-15.35c.28-.1.34-.05.45.34.07.1.18.28.23.4.12.16.17.27.17.33 0 .04.06.2.12.27.1.1.16.28.22.4.05.1.1.27.17.32.06.05.17.22.23.4 0 .15.1.27.1.32.07.06.13.17.18.28.07.17.18.34.24.45.1.17.16.28.16.34 0 .04.06.2.12.27.1.1.16.28.22.4.05.1.1.27.17.32.06.05.17.22.23.4 0 .16.1.27.1.32.07.06.13.17.18.28.07.17.18.34.24.45.1.17.16.28.16.34 0 .04.06.2.12.27.1.1.16.28.22.4.05.1.1.27.17.32.23.22.3.5.12.6l-.1.18h-4c-3.35 0-4.25 0-4.36-.22 0-.17.12-.34.23-.56.1-.12.2-.4.44-.8 0-.1.1-.27.16-.32 0-.06.12-.23.17-.34 0-.1.1-.28.17-.34.05-.1.1-.28.17-.4.06-.16.18-.33.23-.38 0-.06.1-.23.1-.34.07-.1.18-.28.18-.33.07-.06.18-.23.24-.34 0-.1.1-.27.16-.32 0-.06.12-.23.17-.34 0-.1.1-.28.17-.4.06-.05.1-.22.17-.33.06-.16.18-.32.23-.38 0-.06.1-.23.1-.34.07-.1.18-.28.18-.33.07-.06.18-.23.24-.34 0-.1.1-.27.16-.32 0-.06.12-.23.17-.34 0-.1.1-.28.17-.4.06-.05.1-.16.22-.22z" stroke="#fff" stroke-opacity="0" fill="#b40c4c"/><use xlink:href="#c" transform="matrix(1,0,0,1,803.9187448302634,346.6666666666278) translate(0 14.4)"/><use xlink:href="#b" transform="matrix(1,0,0,1,803.9187448302634,346.6666666666278) translate(70.85000000000001 14.4)"/><path d="M-64 424.98H56v120H-64v-120z" stroke="#000" stroke-opacity="0" fill="url(#d)"/><path d="M17.12 508.08c5.08 0 9.1 4.04 9.1 9.07 0 4.95-4.02 9-9.1 9-5 0-9.1-4.05-9.1-9 0-2.64 1.2-5.03 2.97-6.68l-5.25-8.73-.08.08h-17.5c-.64 0-1.3-.4-1.6-1l-8.72-15c-.4-.57-.4-1.23 0-1.8l8.55-14.77-4.84-8c-.9.34-1.86.5-2.9.5-5 0-9.12-4.04-9.12-8.98 0-5.03 4.12-9.07 9.12-9.07 5 0 9.1 4.04 9.1 9.07 0 2.55-1.12 4.94-2.98 6.6l5.25 8.65H5.67c.64 0 1.3.4 1.6 1L16 484c.3.57.3 1.23 0 1.8l-7.6 13.03 5.82 9.73c.96-.33 1.93-.5 2.9-.5zM4.54 498.03l7.66-13.1-7.66-13.12H-10.7l-7.66 13.12 7.66 13.1zm-29.84 10.55l4.36 6.35H-4.9v3.7h-17c-.66 0-1.22-.32-1.62-.82l-5.24-7.57c-.65.16-1.3.24-2.02.24-5 0-9.1-4.04-9.1-9.06 0-2.3.88-4.36 2.33-5.93l-5.57-9.65c-.32-.57-.32-1.23 0-1.8l8.95-15.34 3.23 1.8-8.4 14.44 4.85 8.24c1.14-.5 2.43-.74 3.72-.74 5 0 9.1 4.04 9.1 9 0 2.95-1.44 5.5-3.62 7.16zm56.94-33.88l5.4 9.3c.32.6.32 1.25 0 1.82L29.3 499.2l-3.3-1.9 7.25-12.36-5-8.5c-.73.17-1.53.34-2.34.34-5 0-9.1-4.04-9.1-9.07 0-2.4.96-4.63 2.58-6.28l-4.52-6.5H-1.2v-3.72h17.03c.65 0 1.2.33 1.6.82l5.1 7.34c1.04-.4 2.17-.66 3.38-.66 5 0 9.12 4.04 9.12 9 0 2.87-1.37 5.35-3.4 7zm-62.42 31.98c2.9 0 5.32-2.3 5.32-5.27 0-2.88-2.42-5.27-5.32-5.27-2.9 0-5.32 2.4-5.32 5.28 0 2.97 2.42 5.28 5.32 5.28zm9.44-48.64c2.98 0 5.32-2.4 5.32-5.27 0-2.97-2.34-5.36-5.32-5.36-2.9 0-5.33 2.4-5.33 5.37 0 2.88 2.42 5.27 5.33 5.27zm47.25 14.92c2.9 0 5.33-2.3 5.33-5.27 0-2.9-2.42-5.3-5.32-5.3-2.9 0-5.3 2.4-5.3 5.3 0 2.96 2.4 5.26 5.3 5.26zm-8.78 49.47c2.98 0 5.32-2.4 5.32-5.28 0-2.97-2.34-5.36-5.32-5.36-2.9 0-5.32 2.38-5.32 5.35 0 2.9 2.42 5.28 5.32 5.28z" stroke="#000" stroke-opacity="0" fill="#fff"/><use xlink:href="#e" transform="matrix(1,0,0,1,-94,553.9778776486692) translate(5.574999999999989 14.4)"/><use xlink:href="#f" transform="matrix(1,0,0,1,-94,553.9778776486692) translate(76.52499999999999 14.4)"/><path d="M228.68 483.7c.48.83.48 1.9 0 2.73l-13.44 23.32c-.48.96-1.44 1.43-2.4 1.43h-26.88c-.96 0-1.8-.47-2.4-1.43l-13.32-23.32c-.6-.83-.6-1.9 0-2.74l13.32-23.33c.6-.83 1.44-1.43 2.4-1.43h26.88c.96 0 1.92.6 2.4 1.43zm-17.4 22l11.88-20.58-11.88-20.7h-23.76l-11.76 20.7 11.76 20.6zm28.44-28.08l19.56-2.5.72 5.48-19.56 2.5zm-79.44 15.7l-19.56 2.5-.72-5.46 19.56-2.5zm5.88 14.3l3.24 4.4-15.72 11.78-3.24-4.4zm67.68-44.28l-3.24-4.4 15.72-11.78 3.24 4.4zm4.44 35.1l18.12 7.5-2.04 5.12-18.12-7.6zm-76.56-25.93L143.6 465l2.04-5.1 18.12 7.6zm20.04 48.92l5.04 2.14-7.68 17.97-5.04-2.14zm36.48-71.88l-5.04-2.14 7.68-17.97 5.04 2.14zm8.28 66.16l11.88 15.6-4.32 3.33-11.88-15.6zm-53.04-60.45l-11.88-15.6 4.32-3.32 11.88 15.6zm34.2 69.62l2.52 19.4-5.52.7-2.4-19.4zm-15.36-78.78l-2.52-19.4 5.52-.72 2.4 19.4z" stroke="#000" stroke-opacity="0" fill="#b0084d"/><path d="M240.44 485.66c0 22.36-18.1 40.52-40.38 40.52-22.3 0-40.38-18.16-40.38-40.52 0-22.37 18.1-40.52 40.38-40.52 22.3 0 40.38 18.15 40.38 40.52z" stroke="#000" stroke-opacity="0" fill-opacity="0"/><use xlink:href="#g" transform="matrix(1,0,0,1,110,553.9778776486692) translate(15.549999999999997 14.4)"/><use xlink:href="#h" transform="matrix(1,0,0,1,110,553.9778776486692) translate(118.45 14.4)"/><path d="M473.6 497.18l-6.24 10.92c-.48.84-1.44 1.37-2.4 1.37h-24.23c-.97 0-1.8-.53-2.3-1.37l-12.1-21.1c-.48-.84-.48-1.9 0-2.73l12.12-21.2c.48-.85 1.3-1.38 2.28-1.38h24.23c.97 0 1.93.52 2.4 1.36l4.08 7.24-4.68 2.73-3.36-5.77h-21l-10.55 18.37L442.4 504h21l5.53-9.55zM451.3 487v-5.57h59.38l-11.5-11.65 3.82-3.9 16.2 16.4c1.08 1.04 1.08 2.83 0 3.88L503 502.54l-3.83-3.9 11.5-11.64zm-34.1-.74l.73 5.46-17.17 2.2-.7-5.45zm79.32-31.4l-13.8 10.4-3.36-4.4 13.8-10.4zm-75.35 13.45l-2.17 5.05-15.95-6.62 2.15-5.14zm-12.13 45.8l13.8-10.4 3.25 4.4-13.8 10.4zM475.76 437l-6.7 15.96-5.06-2.2 6.73-15.86zm-46.07 94.92l6.7-15.96 5.05 2.2-6.72 15.86zm3.82-77.28l-4.3 3.36-10.46-13.65 4.32-3.36zm38.53 59.64l4.3-3.36 10.45 13.65-4.3 3.35zm-17.65 5.56l5.53-.63 2.03 17-5.4.75zm-3.35-70.77l-5.4.62-2.16-17 5.38-.74z" stroke="#000" stroke-opacity="0" fill="#b0084d"/><path d="M488.25 484.37c0 19.94-16.05 36.12-35.82 36.12-19.78 0-35.82-16.2-35.82-36.13 0-19.94 16.05-36.12 35.82-36.12 19.78 0 35.82 16.2 35.82 36.12z" stroke="#000" stroke-opacity="0" fill-opacity="0"/><use xlink:href="#g" transform="matrix(1,0,0,1,370.04468891461534,545.9778776486692) translate(20.099999999999994 14.4)"/><use xlink:href="#i" transform="matrix(1,0,0,1,370.04468891461534,545.9778776486692) translate(123 14.4)"/><path d="M932.58 481.86l-55.44 46c-.48.32-.96.53-1.56.64l-9.48.85h-.24c-.84 0-1.56-.43-2.16-1.06-.6-.65-.72-1.6-.48-2.45l2.52-9.22c.24-.53.48-1.06.96-1.38l55.44-46c.48-.43 1.2-.64 1.92-.64.72.1 1.44.43 1.92.96l6.96 8.48c.96 1.17.72 2.86-.36 3.82zM853.5 507.5l-12.72-22.14c-.48-.85-.48-1.9 0-2.76l12.72-22.15c.48-.85 1.44-1.38 2.4-1.38h25.56c.96 0 1.92.53 2.4 1.38l12.84 22.15-4.8 2.76-12-20.9h-22.44L846.18 484l11.28 19.5h10.56v5.4H855.9c-.96 0-1.92-.52-2.4-1.37zm28.32 2.24l3.48 4.24 34.56-28.62-3.6-4.24zm-50.28-22.26l.6 5.4-17.88 2.23-.72-5.4zm82.8-32.86l-14.4 10.8-3.24-4.34 14.4-10.8zm-91.32 61.8l14.4-10.82 3.24 4.35-14.4 10.8zm12.48-47.6l-2.04 4.98-16.68-6.9 2.04-4.97zm9.24 66.04l6.96-16.54 5.04 2.12-6.96 16.54zm47.88-98.7l-6.96 16.55-5.04-2.1 7.08-16.55zm-44.16 18.46l-4.32 3.28-10.92-14.2 4.32-3.3zm18.36-5.94l-5.4.74-2.28-17.8 5.4-.64zm14.28 68.8l-3.48-4.25-6.84 5.73-1.32 4.56 4.8-.43zm45.84-38.06l-3.48-4.24-3 2.44 3.48 4.24z" stroke="#000" stroke-opacity="0" fill="#b0084d"/><path d="M905.7 485.36c0 20.47-16.6 37.1-37.08 37.1-20.47 0-37.08-16.63-37.08-37.1 0-20.48 16.6-37.1 37.08-37.1 20.47 0 37.08 16.62 37.08 37.1z" stroke="#000" stroke-opacity="0" fill-opacity="0"/><use xlink:href="#g" transform="matrix(1,0,0,1,783.5422959477696,545.9778776486692) translate(7.599999999999994 14.4)"/><use xlink:href="#j" transform="matrix(1,0,0,1,783.5422959477696,545.9778776486692) translate(110.5 14.4)"/><use xlink:href="#k" transform="matrix(1,0,0,1,783.5422959477696,545.9778776486692) translate(49 36)"/><use xlink:href="#l" transform="matrix(1,0,0,1,783.5422959477696,545.9778776486692) translate(100 36)"/><path d="M-64 641.5H56v120H-64v-120z" stroke="#000" stroke-opacity="0" fill="url(#m)"/><path d="M-1.35 737.22c7.1 0 14.12-2.38 20.65-7.15l2.18 3.07C14.3 738.4 6.56 741-1.35 741c-18.62 0-34.75-14.55-37.98-34-2.34-.78-4.03-2.85-4.03-5.4 0-2.53 1.7-4.68 4.03-5.38 3.15-18.38 19.2-32.15 37.98-32.15 8.55 0 15 1.85 20.97 6l-2.18 3.08c-5.32-3.77-10.96-5.3-18.8-5.3-16.76 0-31.2 12.14-34.18 28.53 1.45.6 2.58 1.84 3.07 3.3h9.75v3.77h-9.75c-.5 1.54-1.62 2.7-3.07 3.3 3.07 17.47 17.5 30.47 34.2 30.47zm-12-13.15c-1.06 0-1.87-.77-1.87-1.85V711.3l-7-17.46c-.34-.46-.5-1-.5-1.62 0-4.15 8.3-5.6 13.95-5.6 5.65 0 14.2 1.45 14.2 5.6 0 .77-.32 1.4-.8 2l-8.64 17.23v7c0 .7-.33 1.23-.8 1.62-.34.23-.82.54-1.3 1-1.54 1.3-3.3 2.77-5.17 3h-.24zm31.84-20.62v18.77h4.1c.8-2.15 2.83-3.77 5.33-3.77 3.06 0 5.56 2.54 5.56 5.62 0 3.15-2.5 5.7-5.57 5.7-2.5 0-4.52-1.62-5.33-3.78h-5.96c-1.05 0-1.86-.85-1.86-1.93v-20.62H5.43v-3.77h9.35v-20.6c0-1 .8-1.86 1.86-1.86h5.96c.8-2.23 2.83-3.76 5.33-3.76 3.06 0 5.56 2.53 5.56 5.6 0 3.1-2.5 5.63-5.57 5.63-2.5 0-4.52-1.55-5.33-3.7h-4.1v18.68h7.9c.72-2.15 2.82-3.7 5.24-3.7 3.14 0 5.64 2.47 5.64 5.63 0 3.08-2.5 5.62-5.64 5.62-2.42 0-4.52-1.54-5.25-3.77zm-35.5-6.6l5.4 13.45c.1.23.1.46.1.7v9.3c.8-.3 2.25-1.54 3.06-2.15.24-.24.48-.4.72-.62V711c0-.32.08-.62.16-.85l6.62-13.23c-2.58.6-5.4.92-7.83.92-2.58 0-5.64-.3-8.22-1zm8.23-6.55c-5.08 0-8.54 1.16-9.83 1.92 1.3.77 4.75 1.85 9.84 1.85 4.83 0 8.54-1.08 10-1.85-1.46-.84-5.17-1.92-10-1.92zm-28.95 9.38c-1.04 0-1.85.85-1.85 1.93 0 1 .8 1.85 1.85 1.85s1.86-.84 1.86-1.84c0-1.07-.8-1.92-1.86-1.92zm65.65-22.46c-1.05 0-1.94.85-1.94 1.85 0 1.08.88 1.92 1.93 1.92 1.04 0 1.85-.85 1.85-1.93 0-1-.8-1.85-1.85-1.85zm3.7 22.46c-1.04 0-1.85.85-1.85 1.93 0 1 .8 1.85 1.86 1.85 1.04 0 1.85-.84 1.85-1.84 0-1.07-.82-1.92-1.86-1.92zm-3.7 22.54c-1.05 0-1.94.85-1.94 1.85 0 1.08.88 1.92 1.93 1.92 1.04 0 1.85-.85 1.85-1.93 0-1-.8-1.85-1.85-1.85z" stroke="#000" stroke-opacity="0" fill="#fff"/><use xlink:href="#e" transform="matrix(1,0,0,1,-94,770.511174427642) translate(27.099999999999994 14.4)"/><use xlink:href="#n" transform="matrix(1,0,0,1,-94,770.511174427642) translate(98.05 14.4)"/><use xlink:href="#o" transform="matrix(1,0,0,1,-94,770.511174427642) translate(13.149999999999991 36)"/><use xlink:href="#p" transform="matrix(1,0,0,1,-94,770.511174427642) translate(106.95 36)"/><path d="M-129.86 391.05a6 6 0 0 1 6-6h672.8a6 6 0 0 1 6 6v201.2a6 6 0 0 1-6 6h-672.8a6 6 0 0 1-6-6z" fill="#fff" fill-opacity="0"/><path d="M-126.15 385.52l.44-.18.9-.22.94-.07h2m4 0h4m4.02 0h4m4 0h4m4.02 0h4m4 0h4m4.02 0h4m4 0h4m4 0h4.02m4 0h4m4 0h4.02m4 0h4m4 0h4.02m4 0h4m4 0h4.02m4 0h4m4 0h4m4.02 0h4m4 0h4m4.02 0h4m4 0h4m4.02 0h4m4 0h4m4 0h4.02m4 0h4m4 0h4.02m4 0h4m4 0h4.02m4 0h4m4 0h4.02m4 0h4m4 0h4.02m4 0h4m4 0h4m4.02 0h4m4 0h4m4.02 0h4m4 0h4m4.02 0h4m4 0h4m4 0h4.02m4 0h4m4 0h4.02m4 0h4m4 0h4.02m4 0h4m4 0h4.02m4 0h4m4 0h4m4.02 0h4m4 0h4m4.02 0h4m4 0h4m4.02 0h4m4 0h4m4 0h4.02m4 0h4m4 0h4.02m4 0h4m4 0h4.02m4 0h4m4 0h4.02m4 0h4m4 0h4m4.02 0h4m4 0h4m4.02 0h4m4 0h4m4.02 0h4m4 0h4m4.02 0h4m4 0h4m4 0h4.02m4 0h4m4 0h4.02m4 0h4m4 0h4.02m4 0h4m4 0h4.02m4 0h4m4 0h4m4.02 0h4m4 0h4m4.02 0h4m4 0h2l.95.07.9.22.45.18m3.24 3.24l.18.44.22.9.07.95v2m0 4.03v4.03m0 4.03v4.03m0 4.02v4.02m0 4.03v4.02m0 4.02v4.03m0 4.02v4.03m0 4.02v4.02m0 4.02v4.02m0 4.02v4.03m0 4v4.04m0 4.02v4.02m0 4.03v4.03m0 4.02v4.03m0 4.02v4.03m0 4.02v4.02m0 4.03v4.02m0 4.02v4.03m0 4.02v4.02m0 4.02v4.02m0 4.03v4m0 4.03v4.03m0 4.02v4.03m0 4.03v4.02m0 4.03v4.02m0 4.03v2l-.07.95-.22.9-.18.45m-3.24 3.23l-.44.18-.9.22-.95.08h-2m-4 0h-4m-4.02 0h-4m-4 0h-4m-4 0h-4m-4 0h-4.02m-4 0h-4m-4 0h-4.02m-4 0h-4m-4 0h-4.02m-4 0h-4m-4 0h-4.02m-4 0h-4m-4 0h-4m-4.02 0h-4m-4 0h-4m-4.02 0h-4m-4 0h-4m-4.02 0h-4m-4 0h-4m-4.02 0h-4m-4 0h-4m-4 0h-4.02m-4 0h-4m-4 0h-4.02m-4 0h-4m-4 0h-4.02m-4 0h-4m-4 0h-4m-4.02 0h-4m-4 0h-4m-4.02 0h-4m-4 0h-4m-4.02 0h-4m-4 0h-4m-4.02 0h-4m-4 0h-4m-4.02 0h-4m-4 0h-4m-4 0h-4.02m-4 0h-4m-4 0h-4.02m-4 0h-4m-4 0h-4.02m-4 0h-4m-4 0h-4.02m-4 0h-4m-4 0h-4m-4.02 0h-4m-4 0h-4m-4.02 0h-4m-4 0h-4m-4.02 0h-4m-4 0h-4m-4.02 0h-4m-4 0h-4m-4 0H98.4m-4 0h-4m-4 0h-4.02m-4 0h-4m-4 0h-4.02m-4 0h-4m-4 0h-4m-4.02 0h-4m-4 0h-4m-4.02 0h-4m-4 0h-4m-4.02 0h-4m-4 0h-4m-4 0h-4.02m-4 0h-4m-4 0h-4.02m-4 0h-4m-4 0h-4.02m-4 0h-4m-4 0h-4.02m-4 0h-4m-4 0h-4.02m-4 0h-4m-4 0h-4m-4.02 0h-4m-4 0h-4m-4.02 0h-4m-4 0h-4m-4.02 0h-2l-.94-.08-.9-.22-.45-.18m-3.23-3.23l-.2-.44-.2-.92-.08-.94v-2m0-4.04v-4.02m0-4.03v-4.02m0-4.02v-4.02m0-4.02v-4.02m0-4.03v-4m0-4.04v-4.02m0-4.02v-4.03m0-4.03v-4.02m0-4.03v-4.02m0-4.03v-4.02m0-4.02v-4.03m0-4.02v-4.03m0-4.02v-4.02m0-4.02v-4.02m0-4.02v-4.03m0-4v-4.04m0-4.02v-4.02m0-4.03v-4.03m0-4.02v-4.03m0-4.02v-4.03m0-4.02v-4.02m0-4.03v-4.02m0-4.02v-4.03m0-4.02v-4.02m0-4.02v-2l.08-.95.22-.9.18-.44" stroke="#5a6c86" fill="none"/><path d="M257.24 649.5c1.56 0 2.76 1.26 2.76 2.72v27.35c0 1.56-1.2 2.8-2.76 2.8H142.76c-1.56 0-2.76-1.24-2.76-2.8V652.2c0-1.44 1.2-2.7 2.76-2.7zM145.4 676.87h109.2v-21.84H145.4zm9.6 16.43v-5.52h8.16v5.5zm16.32 0v-5.52h8.28v5.5zm16.44 0v-5.52h8.16v5.5zm16.32 0v-5.52h8.16v5.5zm16.32 0v-5.52h8.28v5.5zm16.44 0v-5.52H245v5.5zM155 717.93v-5.5h8.16v5.5zm16.32 0v-5.5h8.28v5.5zm16.44 0v-5.5h8.16v5.5zm16.32 0v-5.5h8.16v5.5zm16.32 0v-5.5h8.28v5.5zm16.44 0v-5.5H245v5.5zM155 728.86v-5.4h8.16v5.4zm16.32 0v-5.4h8.28v5.4zm16.44 0v-5.4h8.16v5.4zm16.32 0v-5.4h8.16v5.4zm16.32 0v-5.4h8.28v5.4zm16.44 0v-5.4H245v5.4zM155 753.5V748h8.16v5.5zm16.32 0V748h8.28v5.5zm16.44 0V748h8.16v5.5zm16.32 0V748h8.16v5.5zm16.32 0V748h8.28v5.5zm16.44 0V748H245v5.5zM260 726.17v4.06h-5.4v-1.36h-1.44v-5.4h4.08c1.56 0 2.76 1.14 2.76 2.7zm-5.4 20.5h5.4v4.15c0 1.46-1.2 2.7-2.76 2.7h-4.08V748h1.44zm-111.84-23.2h4.08v5.4h-1.44v1.36H140v-4.06c0-1.56 1.2-2.7 2.76-2.7zM145.4 748h1.44v5.5h-4.08c-1.56 0-2.76-1.24-2.76-2.7v-4.15h5.4zm109.2-36.92h5.4v4.16c0 1.46-1.2 2.7-2.76 2.7h-4.08v-5.5h1.44zm5.4-20.5v4.07h-5.4v-1.36h-1.44v-5.52h4.08c1.56 0 2.76 1.25 2.76 2.8zm-114.6 21.85h1.44v5.5h-4.08c-1.56 0-2.76-1.23-2.76-2.7v-4.15h5.4zm-2.64-24.65h4.08v5.5h-1.44v1.37H140v-4.06c0-1.57 1.2-2.82 2.76-2.82zm-2.76 17.8v-5.42h5.4v5.4zm114.6 0v-5.42h5.4v5.4zM140 741.23v-5.5h5.4v5.5zm114.6 0v-5.5h5.4v5.5z" stroke="#000" stroke-opacity="0" fill="#b0084d"/><path d="M142.68 665.84h114.6v85.38h-114.6v-85.38z" stroke="#000" stroke-opacity="0" fill-opacity="0"/><use xlink:href="#q" transform="matrix(1,0,0,1,110,762.511174427642) translate(15.674999999999997 14.4)"/><use xlink:href="#r" transform="matrix(1,0,0,1,110,762.511174427642) translate(75.525 14.4)"/><use xlink:href="#s" transform="matrix(1,0,0,1,110,762.511174427642) translate(36.599999999999994 36)"/><use xlink:href="#t" transform="matrix(1,0,0,1,110,762.511174427642) translate(101.5 36)"/><path d="M385.47 1036.43h120v120h-120v-120z" stroke="#000" stroke-opacity="0" fill="url(#u)"/><path d="M468 1115.17v-7.5h3.73v9.4c0 1.08-.83 1.9-1.9 1.9h-22.46v2.07c3.72.9 6.52 4.2 6.52 8.25 0 4.6-3.8 8.4-8.43 8.4-4.62 0-8.42-3.8-8.42-8.4 0-4.06 2.8-7.36 6.52-8.26v-2.07h-22.45c-1.08 0-1.9-.83-1.9-1.9v-5.6H406.1c-1.08 0-1.9-.84-1.9-1.9v-9.42c0-1 .82-1.82 1.9-1.82h13.12v-3.8H406.1c-1.08 0-1.9-.82-1.9-1.8v-9.42c0-1.07.82-1.9 1.9-1.9h13.12v-5.6c0-1.08.82-1.9 1.9-1.9h22.45v-2.07c-3.7-.9-6.52-4.2-6.52-8.26 0-4.62 3.8-8.42 8.42-8.42 4.63 0 8.42 3.8 8.42 8.42 0 4.05-2.8 7.35-6.53 8.26v2.06h22.46c1.07 0 1.9.82 1.9 1.9v9.4H468v-7.5h-45.07v3.7h11.3c1 0 1.83.83 1.83 1.9v9.42c0 1-.82 1.8-1.82 1.8h-11.3v3.8h11.3c1 0 1.82.84 1.82 1.83v9.4c0 1.08-.82 1.9-1.82 1.9h-11.3v3.72zm16.85-26.25c1.08 0 1.9.82 1.9 1.9v11.23c0 1.07-.82 1.9-1.9 1.9h-31.87c-1.07 0-1.9-.83-1.9-1.9v-11.23c0-1.08.83-1.9 1.9-1.9zm-29.97 11.23h28.16v-7.43h-28.16zm-46.97-9.33h24.45v-5.62H407.9zm0 16.84h24.45v-5.6H407.9zm32.87-44.1c0 2.65 2.14 4.72 4.7 4.72s4.7-2.07 4.7-4.7c0-2.57-2.14-4.7-4.7-4.7s-4.7 2.13-4.7 4.7zm9.4 65.73c0-2.65-2.14-4.7-4.7-4.7s-4.7 2.05-4.7 4.7c0 2.55 2.14 4.7 4.7 4.7s4.7-2.15 4.7-4.7z" stroke="#000" stroke-opacity="0" fill="#fff"/><use xlink:href="#v" transform="matrix(1,0,0,1,355.47202624928764,1165.43165666328) translate(7.400000000000006 14.4)"/><use xlink:href="#w" transform="matrix(1,0,0,1,355.47202624928764,1165.43165666328) translate(52.7 14.4)"/><use xlink:href="#x" transform="matrix(1,0,0,1,355.47202624928764,1165.43165666328) translate(94.7 14.4)"/><path d="M669.05 1090.45l-.07 1-.24 1-.4.93-.53.87-.65.78-.77.66-.88.52-.94.4-1 .23-1 .08h-156.6v-1h156.57l.88-.07.85-.2.8-.33.74-.45.64-.56.56-.66.45-.73.33-.8.2-.84.07-.9V886.46h1zm146.2-605.97H674.57l-.88.07-.85.2-.8.33-.73.45-.65.56-.56.65-.45.73-.33.8-.2.84-.07.88v375.12h-1V489.96l.08-1 .24-1 .4-.93.52-.87.66-.78.77-.66.87-.54.94-.38 1-.24 1-.08h140.7z" stroke="#3a414a" stroke-width=".05" fill="#3a414a"/><path d="M506 1096.93h-.53v-1h.5z" fill="#3a414a"/><path d="M506 1096.96h-.55v-1.05h.56zm-.5-1v.95h.46v-.94z" stroke="#3a414a" stroke-width=".05" fill="#3a414a"/><path d="M830.02 483.98l-14.27 4.63v-9.26z" fill="#3a414a"/><path d="M831.63 483.98l-16.38 5.32v-10.65zm-15.38 3.94L828.4 484l-12.15-3.95z" stroke="#3a414a" stroke-width=".05" fill="#3a414a"/><use xlink:href="#y" transform="matrix(1,0,0,1,630.1337474507118,865.1209082248495) translate(0 14.222222222222223)"/><path d="M576.5 484.98h-56.1v-1h56.1zm238.72 0H653.34v-1h161.88z" stroke="#3a414a" stroke-width=".05" fill="#3a414a"/><path d="M520.42 484.98h-.72l.3-.77-.08-.22h.5z" fill="#3a414a"/><path d="M520.44 485h-.78l.33-.8-.12-.25h.56zm-.5-1l.1.2-.3.75h.65V484z" stroke="#3a414a" stroke-width=".05" fill="#3a414a"/><path d="M829.98 484.48l-14.26 4.63v-9.26z" fill="#3a414a"/><path d="M831.6 484.48l-16.38 5.32v-10.65zm-15.38 3.94l12.14-3.94-12.14-3.95z" stroke="#3a414a" stroke-width=".05" fill="#3a414a"/><use xlink:href="#y" transform="matrix(1,0,0,1,576.5055052841325,473.8112109820024) translate(0 14.222222222222223)"/><path d="M930.78 939.78c1.56 0 2.76 1.26 2.76 2.74v68.52c0 1.48-1.2 2.74-2.76 2.74H816.3c-1.56 0-2.76-1.26-2.76-2.74v-68.52c0-1.48 1.2-2.74 2.76-2.74zm-111.84 68.45h109.2v-62.9h-109.2zm13.92-17.98c-.96-.45-1.56-1.48-1.56-2.52v-22.57c0-1.1.72-2.07 1.56-2.5.96-.46 2.16-.3 3 .36l13.56 11.47c.72.58 1.08 1.32 1.08 2.13 0 .9-.36 1.63-1.08 2.15l-13.68 11.1c-.48.44-1.08.6-1.68.6-.36 0-.84-.1-1.2-.23zm78.36-.37l-13.56-11.47c-.72-.58-1.08-1.32-1.08-2.2 0-.83.36-1.57 1.08-2.1l13.68-11.1c.72-.65 1.92-.8 2.88-.36.96.45 1.56 1.4 1.56 2.52v22.57c0 1.1-.72 2.07-1.68 2.52-.36.14-.72.22-1.08.22-.6 0-1.32-.15-1.8-.6zm-54.84 13.54v-53.28h5.52v53.28zm14.76 0v-53.28h5.52v53.28zm14.4 0v-53.28h5.4v53.28zm-48.72-32.4v10.94l6.6-5.33zm73.44-.1l-6.6 5.34 6.6 5.63z" stroke="#000" stroke-opacity="0" fill="#b0084d"/><use xlink:href="#q" transform="matrix(1,0,0,1,783.5422959477696,1022.7788639404752) translate(0.625 14.4)"/><use xlink:href="#z" transform="matrix(1,0,0,1,783.5422959477696,1022.7788639404752) translate(60.475 14.4)"/><use xlink:href="#A" transform="matrix(1,0,0,1,783.5422959477696,1022.7788639404752) translate(119.475 14.4)"/><use xlink:href="#B" transform="matrix(1,0,0,1,783.5422959477696,1022.7788639404752) translate(63 36)"/><path d="M415.53 641.5c1.56 0 2.8 1.2 2.8 2.77v114.48c0 1.56-1.24 2.76-2.8 2.76h-27.35c-1.46 0-2.7-1.2-2.7-2.75V644.27c0-1.56 1.24-2.76 2.7-2.76zm-24.55 114.6h21.84V646.9h-21.84zm32.76-91.43v-8.16h5.52v8.17zm24.65 0v-8.16h5.5v8.17zm11.02 0v-8.16h5.4v8.17zm24.54 0v-8.16h5.5v8.17zm-60.22 16.44v-8.27h5.52v8.28zm24.65 0v-8.27h5.5v8.28zm11.02 0v-8.27h5.4v8.28zm24.54 0v-8.27h5.5v8.28zm-60.22 16.33v-8.16h5.52v8.16zm24.65 0v-8.16h5.5v8.16zm11.02 0v-8.16h5.4v8.16zm24.54 0v-8.16h5.5v8.16zm-60.22 16.32v-8.16h5.52v8.15zm24.65 0v-8.16h5.5v8.15zm11.02 0v-8.16h5.4v8.15zm24.54 0v-8.16h5.5v8.15zm-60.22 16.44v-8.3h5.52v8.3zm24.65 0v-8.3h5.5v8.3zm11.02 0v-8.3h5.4v8.3zm24.54 0v-8.3h5.5v8.3zm-60.22 16.3v-8.15h5.52v8.16zm24.65 0v-8.15h5.5v8.16zm11.02 0v-8.15h5.4v8.16zm24.54 0v-8.15h5.5v8.16zm-19.14 9.6h1.36v5.4h-4.06c-1.56 0-2.7-1.2-2.7-2.75v-4.08h5.4zm19.14-1.43h5.5v4.08c0 1.56-1.24 2.76-2.7 2.76h-4.15v-5.4h1.36zm-35.57 0h5.5v4.08c0 1.56-1.24 2.76-2.7 2.76h-4.16v-5.4h1.35zm-19.14 1.44h1.35v5.4h-4.05c-1.56 0-2.8-1.2-2.8-2.75v-4.08h5.5zm32.86-114.6h4.06v5.4h-1.36v1.45h-5.4v-4.08c0-1.56 1.14-2.76 2.7-2.76zm27.35 2.77v4.08h-5.5v-1.44h-1.36v-5.4h4.17c1.45 0 2.7 1.2 2.7 2.77zm-35.57 0v4.08h-5.5v-1.44h-1.36v-5.4h4.16c1.46 0 2.7 1.2 2.7 2.77zm-27.35-2.76h4.06v5.4h-1.34v1.45h-5.52v-4.08c0-1.56 1.25-2.76 2.8-2.76zm9.57 5.4v-5.4h5.4v5.4zm35.57 0v-5.4h5.5v5.4zM436.1 761.5v-5.4h5.4v5.4zm35.57 0v-5.4h5.5v5.4z" stroke="#000" stroke-opacity="0" fill="#b0084d"/><path d="M388.68 644.3h98.07v114.5h-98.07V644.3z" stroke="#000" stroke-opacity="0" fill-opacity="0"/><use xlink:href="#q" transform="matrix(1,0,0,1,355.47202624928764,770.5111744276421) translate(25.075000000000003 14.4)"/><use xlink:href="#C" transform="matrix(1,0,0,1,355.47202624928764,770.5111744276421) translate(84.92500000000001 14.4)"/><use xlink:href="#s" transform="matrix(1,0,0,1,355.47202624928764,770.5111744276421) translate(13.074999999999989 36)"/><use xlink:href="#D" transform="matrix(1,0,0,1,355.47202624928764,770.5111744276421) translate(77.975 36)"/><path d="M260.5 701.5H369.1" stroke="#3a414a" fill="none"/><path d="M260.5 702h-.5v-1h.5z" stroke="#3a414a" stroke-width=".05" fill="#3a414a"/><path d="M383.85 701.5l-14.26 4.65v-9.27z" stroke="#3a414a" fill="#3a414a"/><path d="M650.64 970.76l.07.88.2.84.35.8.45.73.56.67.65.56.75.45.8.33.83.2.88.08h141v1H656.13l-1-.08-1-.24-.94-.4-.88-.52-.77-.66-.66-.78-.55-.87-.4-.94-.23-1-.08-1v-84.35h1zm-5.48-269.67l1 .23.94.4.87.52.77.66.66.8.54.86.4.94.23 1 .07 1V865.1h-1v-157.6l-.06-.87-.2-.84-.34-.78-.45-.74-.57-.66-.65-.56-.74-.45-.8-.32-.84-.2-.88-.07H487.25v-1h156.9z" stroke="#3a414a" stroke-width=".05" fill="#3a414a"/><path d="M487.26 702h-.5v-1h.5z" fill="#3a414a"/><path d="M487.3 702.04h-.58V701h.56zm-.53-1v.95h.47v-.96z" stroke="#3a414a" stroke-width=".05" fill="#3a414a"/><path d="M811.92 976.78l-14.26 4.63v-9.26z" fill="#3a414a"/><path d="M813.54 976.78l-16.38 5.32v-10.64zm-15.38 3.95l12.15-3.95-12.14-3.95z" stroke="#3a414a" stroke-width=".05" fill="#3a414a"/><path d="M897.5 744.54h-12.96c-.65 0-1.26-.38-1.5-.97l-18.16-38.9h-7.32c-.9 0-1.7-.76-1.7-1.68v-11.23c0-.93.8-1.7 1.7-1.7h16.16c.7 0 1.25.4 1.5 1l18.1 38.88h4.17c.9 0 1.68.76 1.68 1.74v11.16c0 .92-.78 1.68-1.7 1.68zm-11.92-3.43h10.17v-7.72h-3.5c-.65 0-1.26-.38-1.52-.98l-18.06-38.95H859.3v7.8h6.66c.7 0 1.3.37 1.56.97z" stroke="#fff" stroke-opacity="0" fill="#d86613"/><path d="M862.35 744.54h-13.82c-.92 0-1.7-.77-1.7-1.7 0-.28.06-.48.18-.72l14.46-30.27c.3-.6.87-.97 1.54-.97s1.24.33 1.53.94l6.92 14.3c.22.48.22 1 0 1.46l-7.56 16c-.3.6-.88.96-1.55.96zm-11.1-3.4h10l6.83-14.27-5.1-10.37z" stroke="#fff" stroke-opacity="0" fill="#d86613"/><path d="M873.54 760.5c-22.08 0-40-17.9-40-40 0-22.07 17.92-40 40-40s40 17.93 40 40c0 22.1-17.92 40-40 40zm0-76.55c-20.24 0-36.56 16.32-36.56 36.56 0 20.25 16.32 36.57 36.56 36.57 20.24 0 36.56-16.32 36.56-36.56 0-20.23-16.32-36.55-36.56-36.55z" stroke="#fff" stroke-opacity="0" fill="#d86613"/><use xlink:href="#E" transform="matrix(1,0,0,1,803.5422959477696,769.511174427642) translate(29.907407407407405 17.77777777777778)"/><use xlink:href="#F" transform="matrix(1,0,0,1,803.5422959477696,769.511174427642) translate(27.469135802469133 44.44444444444444)"/><path d="M873.54 939.28V776.9" stroke="#3a414a" fill="none"/><path d="M874.04 939.78h-1v-.5h1z" stroke="#3a414a" stroke-width=".05" fill="#3a414a"/><path d="M873.54 762.13l4.64 14.26h-9.27z" stroke="#3a414a" fill="#3a414a"/><path d="M874.04 680h-1v-39.4h1zm0-60.75h-1v-74.2h1z" stroke="#3a414a" stroke-width=".05" fill="#3a414a"/><path d="M874.04 680.54l-.5-.03-.5.03V680h1z" fill="#3a414a"/><path d="M874.07 680.57l-.53-.03h-.52v-.57h1.05zm-1-.55v.48h.47l.48.02v-.5z" stroke="#3a414a" stroke-width=".05" fill="#3a414a"/><path d="M878.18 544.56h-9.27l4.64-14.26z" fill="#3a414a"/><path d="M878.87 545.06h-10.65l5.32-16.38zm-9.27-1h7.9l-3.96-12.14z" stroke="#3a414a" stroke-width=".05" fill="#3a414a"/><use xlink:href="#y" transform="matrix(1,0,0,1,835.1225428613499,619.2517008376318) translate(0 14.222222222222223)"/><path d="M-129.86 627.8a6 6 0 0 1 6-6h672.8a6 6 0 0 1 6 6v322.9a6 6 0 0 1-6 6h-672.8a6 6 0 0 1-6-6z" fill="#fff" fill-opacity="0"/><path d="M-126.15 622.26l.44-.18.9-.22.94-.07h2m4 0h4m4.02 0h4m4 0h4m4.02 0h4m4 0h4m4.02 0h4m4 0h4m4 0h4.02m4 0h4m4 0h4.02m4 0h4m4 0h4.02m4 0h4m4 0h4.02m4 0h4m4 0h4m4.02 0h4m4 0h4m4.02 0h4m4 0h4m4.02 0h4m4 0h4m4 0h4.02m4 0h4m4 0h4.02m4 0h4m4 0h4.02m4 0h4m4 0h4.02m4 0h4m4 0h4.02m4 0h4m4 0h4m4.02 0h4m4 0h4m4.02 0h4m4 0h4m4.02 0h4m4 0h4m4 0h4.02m4 0h4m4 0h4.02m4 0h4m4 0h4.02m4 0h4m4 0h4.02m4 0h4m4 0h4m4.02 0h4m4 0h4m4.02 0h4m4 0h4m4.02 0h4m4 0h4m4 0h4.02m4 0h4m4 0h4.02m4 0h4m4 0h4.02m4 0h4m4 0h4.02m4 0h4m4 0h4m4.02 0h4m4 0h4m4.02 0h4m4 0h4m4.02 0h4m4 0h4m4.02 0h4m4 0h4m4 0h4.02m4 0h4m4 0h4.02m4 0h4m4 0h4.02m4 0h4m4 0h4.02m4 0h4m4 0h4m4.02 0h4m4 0h4m4.02 0h4m4 0h2l.95.06.9.22.45.18m3.24 3.24l.18.43.22.92.07.94v2m0 4.04v4.04m0 4.03v4.05m0 4.04V654m0 4.04v4.04m0 4.03v4.04m0 4.04v4.04m0 4.04v4.04m0 4.03v4.04m0 4.02v4.04m0 4.04v4.03m0 4.04v4.04m0 4.04v4.04m0 4.04v4.03m0 4.04v4.03m0 4.03v4.04m0 4.04v4.03m0 4.04v4.05m0 4.03v4.04m0 4.04v4.03m0 4.03v4.03m0 4.04v4.04m0 4.03v4.04m0 4.05v4.03m0 4.04v4.04m0 4.03v4.03m0 4.04v4.03m0 4.04v4.04m0 4.03v4.05m0 4.04v4.02m0 4.04V872m0 4.03v4.04m0 4.04v4.04m0 4.04v4.04m0 4.03v4.04m0 4.03v4.03m0 4.04v4.03m0 4.04v4.04m0 4.04v4.04m0 4.04v4.03m0 4.04v2l-.07.95-.22.9-.18.45m-3.24 3.23l-.44.18-.9.23-.95.08h-2m-4 0h-4m-4.02 0h-4m-4 0h-4m-4 0h-4m-4 0h-4.02m-4 0h-4m-4 0h-4.02m-4 0h-4m-4 0h-4.02m-4 0h-4m-4 0h-4.02m-4 0h-4m-4 0h-4m-4.02 0h-4m-4 0h-4m-4.02 0h-4m-4 0h-4m-4.02 0h-4m-4 0h-4m-4.02 0h-4m-4 0h-4m-4 0h-4.02m-4 0h-4m-4 0h-4.02m-4 0h-4m-4 0h-4.02m-4 0h-4m-4 0h-4m-4.02 0h-4m-4 0h-4m-4.02 0h-4m-4 0h-4m-4.02 0h-4m-4 0h-4m-4.02 0h-4m-4 0h-4m-4.02 0h-4m-4 0h-4m-4 0h-4.02m-4 0h-4m-4 0h-4.02m-4 0h-4m-4 0h-4.02m-4 0h-4m-4 0h-4.02m-4 0h-4m-4 0h-4m-4.02 0h-4m-4 0h-4m-4.02 0h-4m-4 0h-4m-4.02 0h-4m-4 0h-4m-4.02 0h-4m-4 0h-4m-4 0H98.4m-4 0h-4m-4 0h-4.02m-4 0h-4m-4 0h-4.02m-4 0h-4m-4 0h-4m-4.02 0h-4m-4 0h-4m-4.02 0h-4m-4 0h-4m-4.02 0h-4m-4 0h-4m-4 0h-4.02m-4 0h-4m-4 0h-4.02m-4 0h-4m-4 0h-4.02m-4 0h-4m-4 0h-4.02m-4 0h-4m-4 0h-4.02m-4 0h-4m-4 0h-4m-4.02 0h-4m-4 0h-4m-4.02 0h-4m-4 0h-4m-4.02 0h-2l-.94-.07-.9-.22-.45-.16m-3.23-3.24l-.2-.44-.2-.9-.08-.95v-2m0-4.05v-4.03m0-4.04v-4.04m0-4.03v-4.03m0-4.04v-4.03m0-4.04v-4.03m0-4.04v-4.05m0-4.03v-4.04m0-4.04v-4.03m0-4.03v-4.04m0-4.03v-4.04m0-4.04v-4.03m0-4.05v-4.04m0-4.02v-4.04m0-4.04v-4.03m0-4.04v-4.04m0-4.04v-4.04m0-4.03v-4.05m0-4.04v-4.02m0-4.04v-4.04m0-4.03v-4.04m0-4.04v-4.04m0-4.04v-4.04m0-4.03V763m0-4.03v-4.03m0-4.04v-4.04m0-4.03v-4.04m0-4.05v-4.03m0-4.04v-4.04m0-4.03v-4.03m0-4.04v-4.03m0-4.04v-4.04m0-4.03v-4.05m0-4.03v-4.04m0-4.04v-4.03m0-4.03v-4.04m0-4.03v-4.04m0-4.04V650m0-4.05v-4.04m0-4.02v-4.04m0-4.04v-2l.08-.95.22-.92.18-.43" stroke="#5a6c86" fill="none"/><path d="M56 1488.86H42.32v10.92H56v5.4H42.32v10.92H56v5.52H42.32v10.92H56v5.4H42.32v10.92H56v5.4H42.32v8.28c0 1.44-1.2 2.64-2.64 2.64H31.4v13.68H26v-13.68H15.08v13.68h-5.4v-13.68H-1.24v13.68h-5.52v-13.68h-10.92v13.68h-5.4v-13.68H-34v13.68h-5.4v-13.68h-8.28c-1.44 0-2.64-1.2-2.64-2.64v-8.28H-64v-5.4h13.68v-10.92H-64v-5.4h13.68v-10.92H-64v-5.52h13.68v-10.92H-64v-5.4h13.68v-10.92H-64v-5.4h13.68v-8.28c0-1.44 1.2-2.64 2.64-2.64h8.28v-13.68h5.4v13.68h10.92v-13.68h5.4v13.68h10.92v-13.68h5.52v13.68H9.68v-13.68h5.4v13.68H26v-13.68h5.4v13.68h8.28c1.44 0 2.64 1.2 2.64 2.64v8.28H56zm-100.92 70.92h81.84v-81.84h-81.84z" stroke="#000" stroke-opacity="0" fill="#d45b07"/><use xlink:href="#G" transform="matrix(1,0,0,1,-94,1587.8608104812358) translate(36.025 14.4)"/><use xlink:href="#H" transform="matrix(1,0,0,1,-94,1587.8608104812358) translate(75.975 14.4)"/><path d="M263.67 1585.24c.84.48 1.37 1.33 1.37 2.3v57.35c0 .94-.53 1.78-1.37 2.26l-49.77 28.68c-.42.25-.94.37-1.36.37-.42 0-.95-.12-1.37-.36l-49.77-28.67c-.84-.5-1.36-1.33-1.36-2.3v-57.34c0-.96.52-1.8 1.36-2.3l49.77-28.66c.84-.48 1.9-.48 2.73 0zm-98.17 6.72v51.37l44.3 25.44v-22.33L186.3 1633c-.85-.47-1.38-1.43-1.38-2.4v-27.47zm49.77 76.8l44.3-25.43v-51.37l-19.42 11.16v27.5c0 .95-.52 1.9-1.36 2.4l-23.53 13.42zm-2.73-106.67l-44 25.3 19.53 11.16 23.1-13.32c.84-.47 1.9-.47 2.73 0l23.1 13.33 19.53-11.16zm-22.16 44.38v22.57l19.43 11.15v-22.56zm24.9 11.16v22.56l19.4-11.15v-22.57zm-2.74-4.92l19-11.04-19-10.9-19 10.9z" stroke="#000" stroke-opacity="0" fill="#232f3d"/><use xlink:href="#I" transform="matrix(1,0,0,1,130.0357198724559,1685.2054182254612) translate(64.025 14.4)"/><path d="M676.4 1610.22l-.08 1-.24 1-.4.94-.52.87-.67.77-.78.66-.87.54-.95.4-1 .23-1 .07H265.55v-1h404.33l.88-.06.84-.2.8-.34.73-.45.65-.56.56-.66.45-.74.32-.8.2-.83.07-.88V886.44h1zM815.25 484.48H681.9l-.87.07-.83.2-.8.33-.74.45-.65.56-.55.65-.46.73-.34.8-.2.84-.07.88v375.12h-1V489.96l.07-1 .24-1 .4-.93.53-.87.67-.78.77-.66.87-.54.95-.38.98-.24 1-.08h133.37z" stroke="#3a414a" stroke-width=".05" fill="#3a414a"/><path d="M265.55 1616.7h-.5v-1h.5z" fill="#3a414a"/><path d="M265.57 1616.73H265v-1.05h.57zm-.5-1v.95h.45v-.95z" stroke="#3a414a" stroke-width=".05" fill="#3a414a"/><path d="M830.02 483.98l-14.27 4.63v-9.26z" fill="#3a414a"/><path d="M831.63 483.98l-16.38 5.32v-10.65zm-15.38 3.94L828.4 484l-12.15-3.95z" stroke="#3a414a" stroke-width=".05" fill="#3a414a"/><path d="M19.95 1692.44H7c-.65 0-1.26-.38-1.52-.98l-18.14-38.9h-7.32c-.9 0-1.7-.75-1.7-1.68v-11.22c0-.93.8-1.7 1.7-1.7h16.15c.7 0 1.26.4 1.52 1l18.1 38.88h4.14c.9 0 1.7.76 1.7 1.74v11.17c0 .93-.8 1.7-1.7 1.7zM8.04 1689H18.2v-7.73h-3.5c-.64 0-1.25-.38-1.5-.98l-18.07-38.95h-13.38v7.8h6.67c.7 0 1.3.37 1.56.97z" stroke="#fff" stroke-opacity="0" fill="#d86613"/><path d="M-15.2 1692.44H-29c-.9 0-1.68-.78-1.68-1.72 0-.27.05-.47.17-.7l14.45-30.27c.3-.6.87-.98 1.53-.98.67 0 1.24.34 1.54.94l6.9 14.32c.23.47.23.98 0 1.45l-7.55 16c-.3.6-.87.97-1.54.97zm-11.1-3.4h10.02l6.8-14.28-5.1-10.37z" stroke="#fff" stroke-opacity="0" fill="#d86613"/><path d="M-4 1708.4c-22.08 0-40-17.92-40-40s17.92-40 40-40 40 17.92 40 40-17.92 40-40 40zm0-76.56c-20.24 0-36.56 16.33-36.56 36.57 0 20.24 16.32 36.56 36.56 36.56 20.24 0 36.56-16.32 36.56-36.56 0-20.24-16.32-36.56-36.56-36.56z" stroke="#fff" stroke-opacity="0" fill="#d86613"/><use xlink:href="#E" transform="matrix(1,0,0,1,-74,1717.4047006389503) translate(29.907407407407405 17.77777777777778)"/><use xlink:href="#F" transform="matrix(1,0,0,1,-74,1717.4047006389503) translate(27.469135802469133 44.44444444444444)"/><path d="M-129.86 1439.1a6 6 0 0 1 6-6h672.8a6 6 0 0 1 6 6v347.35a6 6 0 0 1-6 6h-672.8a6 6 0 0 1-6-6z" fill="#fff" fill-opacity="0"/><path d="M-126.15 1433.6l.44-.2.9-.2.94-.1h2m4 0h4m4.02 0h4m4 0h4m4.02 0h4m4 0h4m4.02 0h4m4 0h4m4 0h4.02m4 0h4m4 0h4.02m4 0h4m4 0h4.02m4 0h4m4 0h4.02m4 0h4m4 0h4m4.02 0h4m4 0h4m4.02 0h4m4 0h4m4.02 0h4m4 0h4m4 0h4.02m4 0h4m4 0h4.02m4 0h4m4 0h4.02m4 0h4m4 0h4.02m4 0h4m4 0h4.02m4 0h4m4 0h4m4.02 0h4m4 0h4m4.02 0h4m4 0h4m4.02 0h4m4 0h4m4 0h4.02m4 0h4m4 0h4.02m4 0h4m4 0h4.02m4 0h4m4 0h4.02m4 0h4m4 0h4m4.02 0h4m4 0h4m4.02 0h4m4 0h4m4.02 0h4m4 0h4m4 0h4.02m4 0h4m4 0h4.02m4 0h4m4 0h4.02m4 0h4m4 0h4.02m4 0h4m4 0h4m4.02 0h4m4 0h4m4.02 0h4m4 0h4m4.02 0h4m4 0h4m4.02 0h4m4 0h4m4 0h4.02m4 0h4m4 0h4.02m4 0h4m4 0h4.02m4 0h4m4 0h4.02m4 0h4m4 0h4m4.02 0h4m4 0h4m4.02 0h4m4 0h2l.95.1.9.2.45.2m3.24 3.22l.18.44.22.9.07.95v2.03m0 4.04v4.04m0 4.05v4.04m0 4.03v4.03m0 4.04v4.04m0 4.04v4.04m0 4.04v4.04m0 4.04v4.03m0 4.04v4.05m0 4.04v4.03m0 4.04v4.04m0 4.05v4.03m0 4.04v4.04m0 4.04v4.04m0 4.04v4.04m0 4.04v4.04m0 4.03v4.04m0 4.04v4.05m0 4.04v4.03m0 4.04v4.04m0 4.04v4.04m0 4.04v4.04m0 4.04v4.04m0 4.04v4.04m0 4.03v4.04m0 4.03v4.04m0 4.04v4.05m0 4.04v4.03m0 4.04v4.03m0 4.04v4.04m0 4.04v4.04m0 4.04v4.04m0 4.04v4.03m0 4.05v4.04m0 4.03v4.04m0 4.04v4.05m0 4.04v4.02m0 4.04v4.04m0 4.04v4.04m0 4.04v4.04m0 4.04v4.03m0 4.04v4.04m0 4.05v4.04m0 4.03v2.02l-.07.94-.22.9-.18.44m-3.24 3.23l-.44.18-.9.22-.95.08h-2m-4 0h-4m-4.02 0h-4m-4 0h-4m-4 0h-4m-4 0h-4.02m-4 0h-4m-4 0h-4.02m-4 0h-4m-4 0h-4.02m-4 0h-4m-4 0h-4.02m-4 0h-4m-4 0h-4m-4.02 0h-4m-4 0h-4m-4.02 0h-4m-4 0h-4m-4.02 0h-4m-4 0h-4m-4.02 0h-4m-4 0h-4m-4 0h-4.02m-4 0h-4m-4 0h-4.02m-4 0h-4m-4 0h-4.02m-4 0h-4m-4 0h-4m-4.02 0h-4m-4 0h-4m-4.02 0h-4m-4 0h-4m-4.02 0h-4m-4 0h-4m-4.02 0h-4m-4 0h-4m-4.02 0h-4m-4 0h-4m-4 0h-4.02m-4 0h-4m-4 0h-4.02m-4 0h-4m-4 0h-4.02m-4 0h-4m-4 0h-4.02m-4 0h-4m-4 0h-4m-4.02 0h-4m-4 0h-4m-4.02 0h-4m-4 0h-4m-4.02 0h-4m-4 0h-4m-4.02 0h-4m-4 0h-4m-4 0H98.4m-4 0h-4m-4 0h-4.02m-4 0h-4m-4 0h-4.02m-4 0h-4m-4 0h-4m-4.02 0h-4m-4 0h-4m-4.02 0h-4m-4 0h-4m-4.02 0h-4m-4 0h-4m-4 0h-4.02m-4 0h-4m-4 0h-4.02m-4 0h-4m-4 0h-4.02m-4 0h-4m-4 0h-4.02m-4 0h-4m-4 0h-4.02m-4 0h-4m-4 0h-4m-4.02 0h-4m-4 0h-4m-4.02 0h-4m-4 0h-4m-4.02 0h-2l-.94-.08-.9-.2-.45-.2m-3.23-3.23l-.2-.44-.2-.9-.08-.95v-2.02m0-4.04v-4.05m0-4.04v-4.03m0-4.04v-4.03m0-4.04v-4.04m0-4.04v-4.04m0-4.04v-4.04m0-4.04v-4.03m0-4.05v-4.04m0-4.03v-4.04m0-4.04v-4.05m0-4.04v-4.02m0-4.04v-4.04m0-4.04v-4.04m0-4.04v-4.04m0-4.04v-4.03m0-4.04v-4.04m0-4.05v-4.04m0-4.03v-4.04m0-4.04v-4.05m0-4.03v-4.04m0-4.04v-4.04m0-4.04v-4.04m0-4.04v-4.04m0-4.03v-4.03m0-4.04v-4.04m0-4.05v-4.04m0-4.03v-4.04m0-4.03v-4.04m0-4.04v-4.04m0-4.04v-4.04m0-4.04v-4.04m0-4.04v-4.03m0-4.04v-4.03m0-4.04v-4.04m0-4.05v-4.04m0-4.03v-4.03m0-4.04v-4.04m0-4.04v-4.04m0-4.04v-4.04m0-4.04v-4.03m0-4.04v-4.05m0-4.04v-4.03m0-4.04v-2.02l.08-.93.22-.9.18-.45" stroke="#5a6c86" fill="none"/><use xlink:href="#J" transform="matrix(1,0,0,1,-129.85827750853593,1453.1122334945155) translate(274.69135802469134 17.77777777777778)"/><use xlink:href="#K" transform="matrix(1,0,0,1,-129.85827750853593,1453.1122334945155) translate(357.28395061728395 17.77777777777778)"/><use xlink:href="#L" transform="matrix(1,0,0,1,-129.85827750853593,1453.1122334945155) translate(274.1358024691358 44.44444444444444)"/><use xlink:href="#M" transform="matrix(1,0,0,1,-129.85827750853593,1453.1122334945155) translate(338.14814814814815 44.44444444444444)"/><path d="M-100 1265.92a6 6 0 0 1 6-6H54a6 6 0 0 1 6 6v148a6 6 0 0 1-6 6H-94a6 6 0 0 1-6-6z" stroke="#3a414a" fill="#fff"/><use xlink:href="#N" transform="matrix(1,0,0,1,-95,1264.9172704095529) translate(26.111111111111114 64.65277777777777)"/><use xlink:href="#O" transform="matrix(1,0,0,1,-95,1264.9172704095529) translate(28.79629629629629 91.31944444444446)"/><path d="M934.04 1339.92h33.5a6 6 0 0 0 6-6v-607.4a6 6 0 0 0-6-6h-37.6" stroke="#3a414a" fill="none"/><path d="M934.05 1340.42h-.5v-1h.5z" stroke="#3a414a" stroke-width=".05" fill="#3a414a"/><path d="M915.16 720.5l14.27-4.62v9.27z" stroke="#3a414a" fill="#3a414a"/><path d="M61 1339.92h736.16" stroke="#3a414a" fill="none"/><path d="M61 1340.42h-.5v-1h.5z" stroke="#3a414a" stroke-width=".05" fill="#3a414a"/><path d="M811.92 1339.92l-14.26 4.63v-9.27z" stroke="#3a414a" fill="#3a414a"/><path d="M813.54 1279.92h120v120h-120v-120z" stroke="#000" stroke-opacity="0" fill="url(#P)"/><path d="M858.52 1317.35h3.8v3.8h-3.8v18.63c0-.42.24-.9.57-1.24l5.6-5.6 2.65 2.63-4.3 4.3 4.3 4.27-2.64 2.64-5.6-5.6c-.34-.33-.58-.83-.58-1.32v18.7h3.8v3.8h-3.8v16.82c0 .66-.33 1.24-.9 1.65-.26.16-.6.25-1 .25-.25 0-.5-.1-.83-.17l-22.46-11.28c-.67-.33-1.08-.9-1.08-1.65v-54.33c0-.66.33-1.32.9-1.65l22.55-13.12c.6-.33 1.33-.33 1.9 0 .6.33.92 1 .92 1.65zm56.3-3.7v54.32c0 .74-.4 1.32-1.07 1.65l-22.46 11.3c-.34.07-.58.16-.83.16-.42 0-.75-.1-1-.25-.57-.4-.9-1-.9-1.65v-16.82h-3.8v-3.8h3.8v-18.7c0 .5-.25 1-.58 1.32l-5.62 5.6-2.65-2.64 4.3-4.28-4.3-4.3 2.65-2.63 5.6 5.6c.34.34.6.83.6 1.25v-18.64h-3.8v-3.8h3.8v-16.8c0-.67.32-1.33.9-1.65.57-.35 1.32-.35 1.9-.02l22.53 13.1c.6.34.92 1 .92 1.66zm-60.02-9.9l-18.82 10.96v52.12l18.82 9.3zm56.3 10.96l-18.82-10.95v72.38l18.83-9.32zm-32.03 16.42l-7.5 20.6-3.56-1.23 7.52-20.62zm-13.04-9.98v-3.8h5.6v3.8zm9.4 0v-3.8h5.63v3.8zm-9.4 41.22v-3.8h5.6v3.8zm9.4 0v-3.8h5.63v3.8z" stroke="#000" stroke-opacity="0" fill="#fff"/><g><use xlink:href="#e" transform="matrix(1,0,0,1,783.5422959477696,1408.9172704095529) translate(2.049999999999997 14.4)"/><use xlink:href="#Q" transform="matrix(1,0,0,1,783.5422959477696,1408.9172704095529) translate(73 14.4)"/><use xlink:href="#R" transform="matrix(1,0,0,1,783.5422959477696,1408.9172704095529) translate(107 14.4)"/></g><path d="M-64 1036.43H56v120H-64v-120z" stroke="#000" stroke-opacity="0" fill="url(#S)"/><path d="M-19.03 1073.87h3.8v3.8h-3.8v18.62c0-.42.25-.92.58-1.25l5.62-5.6 2.64 2.63-4.3 4.3 4.3 4.28-2.63 2.64-5.62-5.6c-.33-.34-.58-.83-.58-1.33v18.72h3.8v3.78h-3.8v16.82c0 .65-.33 1.23-.9 1.64-.25.17-.58.25-1 .25-.24 0-.5-.1-.82-.17l-22.46-11.3c-.67-.33-1.08-.9-1.08-1.65v-54.32c0-.66.33-1.32.9-1.65l22.55-13.1c.57-.33 1.32-.33 1.9 0 .57.33.9 1 .9 1.65zm56.3-3.7v54.3c0 .76-.4 1.33-1.06 1.66l-22.45 11.3c-.33.08-.58.16-.82.16-.42 0-.75-.1-1-.26-.57-.4-.9-.98-.9-1.64v-16.82h-3.8v-3.8h3.8v-18.7c0 .5-.25.98-.58 1.3l-5.62 5.62-2.64-2.64 4.3-4.3-4.3-4.27 2.63-2.65 5.62 5.6c.33.33.58.83.58 1.24v-18.64h-3.8v-3.8h3.8v-16.8c0-.67.33-1.33.9-1.66.58-.33 1.33-.33 1.9 0l22.54 13.1c.58.34.9 1 .9 1.66zm-60-9.9l-18.83 10.96v52.1l18.82 9.32zm56.3 10.96l-18.83-10.97v72.38l18.82-9.3zm-32.04 16.4l-7.5 20.6-3.56-1.22 7.5-20.6zm-13.04-9.97v-3.8h5.6v3.8zm9.4 0v-3.8h5.6v3.8zm-9.4 41.22v-3.8h5.6v3.8zm9.4 0v-3.8h5.6v3.8z" stroke="#000" stroke-opacity="0" fill="#fff"/><g><use xlink:href="#T" transform="matrix(1,0,0,1,-94,1165.43165666328) translate(2.049999999999997 14.4)"/><use xlink:href="#U" transform="matrix(1,0,0,1,-94,1165.43165666328) translate(73 14.4)"/><use xlink:href="#V" transform="matrix(1,0,0,1,-94,1165.43165666328) translate(107 14.4)"/></g><path d="M475.35 923.22h-20.48c-1.03 0-2-.6-2.4-1.55l-28.7-61.52H412.2c-1.44 0-2.68-1.2-2.68-2.67v-17.75c0-1.47 1.24-2.68 2.67-2.68h25.55c1.1 0 1.98.6 2.4 1.56l28.63 61.53h6.57c1.44 0 2.67 1.2 2.67 2.75v17.67c0 1.46-1.23 2.67-2.67 2.67zm-18.84-5.43h16.1v-12.25h-5.54c-1.02 0-1.98-.6-2.4-1.55l-28.56-61.6h-21.17v12.32h10.55c1.1 0 2.06.6 2.47 1.55z" stroke="#fff" stroke-opacity="0" fill="#d86613"/><path d="M419.77 923.22H397.9c-1.45 0-2.67-1.23-2.67-2.72 0-.42.08-.74.28-1.12l22.86-47.88c.47-.96 1.37-1.54 2.43-1.54 1.05 0 1.95.53 2.42 1.5l10.94 22.63c.35.73.35 1.53 0 2.28l-11.96 25.3c-.47.95-1.37 1.54-2.43 1.54zm-17.56-5.38h15.85l10.78-22.58-8.08-16.4z" stroke="#fff" stroke-opacity="0" fill="#d86613"/><path d="M437.47 948.48c-34.93 0-63.28-28.35-63.28-63.28s28.34-63.28 63.27-63.28c34.93 0 63.28 28.35 63.28 63.28s-28.35 63.28-63.28 63.28zm0-121.12c-32.02 0-57.83 25.82-57.83 57.84s25.8 57.83 57.83 57.83c32.02 0 57.84-25.8 57.84-57.83 0-32.02-25.8-57.84-57.83-57.84z" stroke="#fff" stroke-opacity="0" fill="#d86613"/><g><use xlink:href="#W" transform="matrix(1,0,0,1,344.19396787566853,957.476771569471) translate(7.790123456790127 17.77777777777778)"/><use xlink:href="#X" transform="matrix(1,0,0,1,344.19396787566853,957.476771569471) translate(94.14814814814815 17.77777777777778)"/></g><path d="M-129.86 821.9a6 6 0 0 1 6-6h672.8a6 6 0 0 1 6 6v392.02a6 6 0 0 1-6 6h-672.8a6 6 0 0 1-6-6z" fill="#fff" fill-opacity="0"/><path d="M-126.15 816.37l.44-.18.9-.23.94-.07h2m4 0h4m4.02 0h4m4 0h4m4.02 0h4m4 0h4m4.02 0h4m4 0h4m4 0h4.02m4 0h4m4 0h4.02m4 0h4m4 0h4.02m4 0h4m4 0h4.02m4 0h4m4 0h4m4.02 0h4m4 0h4m4.02 0h4m4 0h4m4.02 0h4m4 0h4m4 0h4.02m4 0h4m4 0h4.02m4 0h4m4 0h4.02m4 0h4m4 0h4.02m4 0h4m4 0h4.02m4 0h4m4 0h4m4.02 0h4m4 0h4m4.02 0h4m4 0h4m4.02 0h4m4 0h4m4 0h4.02m4 0h4m4 0h4.02m4 0h4m4 0h4.02m4 0h4m4 0h4.02m4 0h4m4 0h4m4.02 0h4m4 0h4m4.02 0h4m4 0h4m4.02 0h4m4 0h4m4 0h4.02m4 0h4m4 0h4.02m4 0h4m4 0h4.02m4 0h4m4 0h4.02m4 0h4m4 0h4m4.02 0h4m4 0h4m4.02 0h4m4 0h4m4.02 0h4m4 0h4m4.02 0h4m4 0h4m4 0h4.02m4 0h4m4 0h4.02m4 0h4m4 0h4.02m4 0h4m4 0h4.02m4 0h4m4 0h4m4.02 0h4m4 0h4m4.02 0h4m4 0h2l.95.07.9.22.45.17m3.24 3.24l.18.45.22.9.07.95v2m0 4v4m0 4v4m0 4v4m0 4v4m0 4v4m0 4v4m0 4v4m0 4v4m0 4v4m0 4v4m0 4v4m0 4v4m0 4v4m0 4v4m0 4v4m0 4v4m0 4v4m0 4v4m0 4v4m0 4v4m0 4v4m0 4v4m0 4v4m0 4v4m0 4v4m0 4v4m0 4v4m0 4v4m0 4v4m0 4v4m0 4v4m0 4v4m0 4v4m0 4v4m0 4v4m0 4v4m0 4v4m0 4v4m0 4v4m0 4v4m0 4v4m0 4v4m0 4v4m0 4v4.02m0 4v4m0 4v4m0 4v4m0 4v4m0 4v2l-.07.94-.22.9-.18.45m-3.24 3.24l-.44.18-.9.22-.95.08h-2m-4 0h-4m-4.02 0h-4m-4 0h-4m-4 0h-4m-4 0h-4.02m-4 0h-4m-4 0h-4.02m-4 0h-4m-4 0h-4.02m-4 0h-4m-4 0h-4.02m-4 0h-4m-4 0h-4m-4.02 0h-4m-4 0h-4m-4.02 0h-4m-4 0h-4m-4.02 0h-4m-4 0h-4m-4.02 0h-4m-4 0h-4m-4 0h-4.02m-4 0h-4m-4 0h-4.02m-4 0h-4m-4 0h-4.02m-4 0h-4m-4 0h-4m-4.02 0h-4m-4 0h-4m-4.02 0h-4m-4 0h-4m-4.02 0h-4m-4 0h-4m-4.02 0h-4m-4 0h-4m-4.02 0h-4m-4 0h-4m-4 0h-4.02m-4 0h-4m-4 0h-4.02m-4 0h-4m-4 0h-4.02m-4 0h-4m-4 0h-4.02m-4 0h-4m-4 0h-4m-4.02 0h-4m-4 0h-4m-4.02 0h-4m-4 0h-4m-4.02 0h-4m-4 0h-4m-4.02 0h-4m-4 0h-4m-4 0H98.4m-4 0h-4m-4 0h-4.02m-4 0h-4m-4 0h-4.02m-4 0h-4m-4 0h-4m-4.02 0h-4m-4 0h-4m-4.02 0h-4m-4 0h-4m-4.02 0h-4m-4 0h-4m-4 0h-4.02m-4 0h-4m-4 0h-4.02m-4 0h-4m-4 0h-4.02m-4 0h-4m-4 0h-4.02m-4 0h-4m-4 0h-4.02m-4 0h-4m-4 0h-4m-4.02 0h-4m-4 0h-4m-4.02 0h-4m-4 0h-4m-4.02 0h-2l-.94-.08-.9-.22-.45-.18m-3.23-3.23l-.2-.43-.2-.9-.08-.95v-2m0-4v-4m0-4v-4m0-4v-4m0-4v-4m0-4v-4m0-4v-4m0-4v-4m0-4v-4m0-4v-4m0-4v-4m0-4v-4m0-4v-4m0-4v-4m0-4v-4m0-4v-4m0-4v-4m0-4v-4m0-4v-4m0-4v-4m0-4v-4m0-4v-4m0-4v-4m0-4v-4m0-4v-4m0-4v-4m0-4v-4m0-4v-4m0-4v-4m0-4v-4m0-4v-4m0-4v-4m0-4v-4m0-4v-4m0-4v-4m0-4v-4m0-4.02v-4m0-4v-4m0-4v-4m0-4v-4m0-4v-4m0-4v-4m0-4v-4m0-4v-4m0-4v-4m0-4v-4m0-4v-4m0-4v-4m0-4v-4m0-4v-2l.08-.94.22-.9.18-.45" stroke="#5a6c86" fill="none"/><path d="M56.5 1096.43h312.6" stroke="#3a414a" fill="none"/><path d="M56.5 1096.93H56v-1h.5z" stroke="#3a414a" stroke-width=".05" fill="#3a414a"/><path d="M383.85 1096.43l-14.26 4.64v-9.27z" stroke="#3a414a" fill="#3a414a"/><path d="M56.5 1096.43h152.6a6 6 0 0 0 6-6V891.2a6 6 0 0 1 6-6h136.7" stroke="#3a414a" fill="none"/><path d="M56.5 1096.93H56v-1h.5z" stroke="#3a414a" stroke-width=".05" fill="#3a414a"/><path d="M372.58 885.2l-14.27 4.63v-9.27z" stroke="#3a414a" fill="#3a414a"/><path d="M630.13 885.7H501.25v-1h128.88zm185.12-401.22H672.2l-.87.07-.84.2-.8.33-.74.45-.66.56-.56.65-.45.73-.34.8-.2.84-.07.88v375.12h-1V489.96l.07-1 .24-1 .4-.93.53-.87.67-.78.77-.66.87-.54.94-.38 1-.24 1-.08h143.07z" stroke="#3a414a" stroke-width=".05" fill="#3a414a"/><path d="M501.26 885.7h-.53l.02-.5-.02-.5h.53z" fill="#3a414a"/><path d="M501.3 885.72h-.6l.03-.52-.02-.53h.6zm-.54-1v.95h.48v-.95z" stroke="#3a414a" stroke-width=".05" fill="#3a414a"/><path d="M830.02 483.98l-14.27 4.63v-9.26z" fill="#3a414a"/><path d="M831.63 483.98l-16.38 5.32v-10.65zm-15.38 3.94L828.4 484l-12.15-3.95z" stroke="#3a414a" stroke-width=".05" fill="#3a414a"/><path d="M260.5 701.5h50.6a6 6 0 0 1 6 6v171.7a6 6 0 0 0 6 6h34.7" stroke="#3a414a" fill="none"/><path d="M260.5 702h-.5v-1h.5z" stroke="#3a414a" stroke-width=".05" fill="#3a414a"/><path d="M372.58 885.2l-14.27 4.63v-9.27z" stroke="#3a414a" fill="#3a414a"/><defs><path fill="#b40c4c" d="M33 0v-248h34V0H33" id="Y"/><path fill="#b40c4c" d="M117-194c89-4 53 116 60 194h-32v-121c0-31-8-49-39-48C34-167 62-67 57 0H25l-1-190h30c1 10-1 24 2 32 11-22 29-35 61-36" id="Z"/><path fill="#b40c4c" d="M59-47c-2 24 18 29 38 22v24C64 9 27 4 27-40v-127H5v-23h24l9-43h21v43h35v23H59v120" id="aa"/><path fill="#b40c4c" d="M100-194c63 0 86 42 84 106H49c0 40 14 67 53 68 26 1 43-12 49-29l28 8c-11 28-37 45-77 45C44 4 14-33 15-96c1-61 26-98 85-98zm52 81c6-60-76-77-97-28-3 7-6 17-6 28h103" id="ab"/><path fill="#b40c4c" d="M177-190C167-65 218 103 67 71c-23-6-38-20-44-43l32-5c15 47 100 32 89-28v-30C133-14 115 1 83 1 29 1 15-40 15-95c0-56 16-97 71-98 29-1 48 16 59 35 1-10 0-23 2-32h30zM94-22c36 0 50-32 50-73 0-42-14-75-50-75-39 0-46 34-46 75s6 73 46 73" id="ac"/><path fill="#b40c4c" d="M114-163C36-179 61-72 57 0H25l-1-190h30c1 12-1 29 2 39 6-27 23-49 58-41v29" id="ad"/><path fill="#b40c4c" d="M141-36C126-15 110 5 73 4 37 3 15-17 15-53c-1-64 63-63 125-63 3-35-9-54-41-54-24 1-41 7-42 31l-33-3c5-37 33-52 76-52 45 0 72 20 72 64v82c-1 20 7 32 28 27v20c-31 9-61-2-59-35zM48-53c0 20 12 33 32 33 41-3 63-29 60-74-43 2-92-5-92 41" id="ae"/><path fill="#b40c4c" d="M24-231v-30h32v30H24zM24 0v-190h32V0H24" id="af"/><path fill="#b40c4c" d="M100-194c62-1 85 37 85 99 1 63-27 99-86 99S16-35 15-95c0-66 28-99 85-99zM99-20c44 1 53-31 53-75 0-43-8-75-51-75s-53 32-53 75 10 74 51 75" id="ag"/><g id="a"><use transform="matrix(0.05,0,0,0.05,0,0)" xlink:href="#Y"/><use transform="matrix(0.05,0,0,0.05,5,0)" xlink:href="#Z"/><use transform="matrix(0.05,0,0,0.05,15,0)" xlink:href="#aa"/><use transform="matrix(0.05,0,0,0.05,20,0)" xlink:href="#ab"/><use transform="matrix(0.05,0,0,0.05,30,0)" xlink:href="#ac"/><use transform="matrix(0.05,0,0,0.05,40,0)" xlink:href="#ad"/><use transform="matrix(0.05,0,0,0.05,45.95,0)" xlink:href="#ae"/><use transform="matrix(0.05,0,0,0.05,55.95,0)" xlink:href="#aa"/><use transform="matrix(0.05,0,0,0.05,60.95,0)" xlink:href="#af"/><use transform="matrix(0.05,0,0,0.05,64.9,0)" xlink:href="#ag"/><use transform="matrix(0.05,0,0,0.05,74.9,0)" xlink:href="#Z"/></g><path fill="#b40c4c" d="M205 0l-28-72H64L36 0H1l101-248h38L239 0h-34zm-38-99l-47-123c-12 45-31 82-46 123h93" id="ah"/><path fill="#b40c4c" d="M96-169c-40 0-48 33-48 73s9 75 48 75c24 0 41-14 43-38l32 2c-6 37-31 61-74 61-59 0-76-41-82-99-10-93 101-131 147-64 4 7 5 14 7 22l-32 3c-4-21-16-35-41-35" id="ai"/><path fill="#b40c4c" d="M84 4C-5 8 30-112 23-190h32v120c0 31 7 50 39 49 72-2 45-101 50-169h31l1 190h-30c-1-10 1-25-2-33-11 22-28 36-60 37" id="aj"/><g id="b"><use transform="matrix(0.05,0,0,0.05,0,0)" xlink:href="#ah"/><use transform="matrix(0.05,0,0,0.05,12,0)" xlink:href="#ai"/><use transform="matrix(0.05,0,0,0.05,21,0)" xlink:href="#ai"/><use transform="matrix(0.05,0,0,0.05,30,0)" xlink:href="#ag"/><use transform="matrix(0.05,0,0,0.05,40,0)" xlink:href="#aj"/><use transform="matrix(0.05,0,0,0.05,50,0)" xlink:href="#Z"/><use transform="matrix(0.05,0,0,0.05,60,0)" xlink:href="#aa"/></g><path fill="#b40c4c" d="M233-177c-1 41-23 64-60 70L243 0h-38l-65-103H63V0H30v-248c88 3 205-21 203 71zM63-129c60-2 137 13 137-47 0-61-80-42-137-45v92" id="ak"/><path fill="#b40c4c" d="M135-143c-3-34-86-38-87 0 15 53 115 12 119 90S17 21 10-45l28-5c4 36 97 45 98 0-10-56-113-15-118-90-4-57 82-63 122-42 12 7 21 19 24 35" id="al"/><path fill="#b40c4c" d="M179-190L93 31C79 59 56 82 12 73V49c39 6 53-20 64-50L1-190h34L92-34l54-156h33" id="am"/><g id="c"><use transform="matrix(0.05,0,0,0.05,0,0)" xlink:href="#ak"/><use transform="matrix(0.05,0,0,0.05,12.950000000000001,0)" xlink:href="#ab"/><use transform="matrix(0.05,0,0,0.05,22.950000000000003,0)" xlink:href="#ac"/><use transform="matrix(0.05,0,0,0.05,32.95,0)" xlink:href="#af"/><use transform="matrix(0.05,0,0,0.05,36.900000000000006,0)" xlink:href="#al"/><use transform="matrix(0.05,0,0,0.05,45.900000000000006,0)" xlink:href="#aa"/><use transform="matrix(0.05,0,0,0.05,50.900000000000006,0)" xlink:href="#ad"/><use transform="matrix(0.05,0,0,0.05,56.85,0)" xlink:href="#am"/></g><linearGradient gradientUnits="userSpaceOnUse" id="d" x1="-64" y1="544.98" x2="56" y2="424.98"><stop offset="0%" stop-color="#b0084d"/><stop offset="100%" stop-color="#ff4f8b"/></linearGradient><path d="M205 0l-28-72H64L36 0H1l101-248h38L239 0h-34zm-38-99l-47-123c-12 45-31 82-46 123h93" id="an"/><path d="M210-169c-67 3-38 105-44 169h-31v-121c0-29-5-50-35-48C34-165 62-65 56 0H25l-1-190h30c1 10-1 24 2 32 10-44 99-50 107 0 11-21 27-35 58-36 85-2 47 119 55 194h-31v-121c0-29-5-49-35-48" id="ao"/><path d="M141-36C126-15 110 5 73 4 37 3 15-17 15-53c-1-64 63-63 125-63 3-35-9-54-41-54-24 1-41 7-42 31l-33-3c5-37 33-52 76-52 45 0 72 20 72 64v82c-1 20 7 32 28 27v20c-31 9-61-2-59-35zM48-53c0 20 12 33 32 33 41-3 63-29 60-74-43 2-92-5-92 41" id="ap"/><path d="M9 0v-24l116-142H16v-24h144v24L44-24h123V0H9" id="aq"/><path d="M100-194c62-1 85 37 85 99 1 63-27 99-86 99S16-35 15-95c0-66 28-99 85-99zM99-20c44 1 53-31 53-75 0-43-8-75-51-75s-53 32-53 75 10 74 51 75" id="ar"/><path d="M117-194c89-4 53 116 60 194h-32v-121c0-31-8-49-39-48C34-167 62-67 57 0H25l-1-190h30c1 10-1 24 2 32 11-22 29-35 61-36" id="as"/><g id="e"><use transform="matrix(0.05,0,0,0.05,0,0)" xlink:href="#an"/><use transform="matrix(0.05,0,0,0.05,12,0)" xlink:href="#ao"/><use transform="matrix(0.05,0,0,0.05,26.950000000000003,0)" xlink:href="#ap"/><use transform="matrix(0.05,0,0,0.05,36.95,0)" xlink:href="#aq"/><use transform="matrix(0.05,0,0,0.05,45.95,0)" xlink:href="#ar"/><use transform="matrix(0.05,0,0,0.05,55.95,0)" xlink:href="#as"/></g><path d="M30 0v-248h187v28H63v79h144v27H63v87h162V0H30" id="at"/><path d="M108 0H70L1-190h34L89-25l56-165h34" id="au"/><path d="M100-194c63 0 86 42 84 106H49c0 40 14 67 53 68 26 1 43-12 49-29l28 8c-11 28-37 45-77 45C44 4 14-33 15-96c1-61 26-98 85-98zm52 81c6-60-76-77-97-28-3 7-6 17-6 28h103" id="av"/><path d="M59-47c-2 24 18 29 38 22v24C64 9 27 4 27-40v-127H5v-23h24l9-43h21v43h35v23H59v120" id="aw"/><path d="M160-131c35 5 61 23 61 61C221 17 115-2 30 0v-248c76 3 177-17 177 60 0 33-19 50-47 57zm-97-11c50-1 110 9 110-42 0-47-63-36-110-37v79zm0 115c55-2 124 14 124-45 0-56-70-42-124-44v89" id="ax"/><path d="M114-163C36-179 61-72 57 0H25l-1-190h30c1 12-1 29 2 39 6-27 23-49 58-41v29" id="ay"/><path d="M24-231v-30h32v30H24zM24 0v-190h32V0H24" id="az"/><path d="M85-194c31 0 48 13 60 33l-1-100h32l1 261h-30c-2-10 0-23-3-31C134-8 116 4 85 4 32 4 16-35 15-94c0-66 23-100 70-100zm9 24c-40 0-46 34-46 75 0 40 6 74 45 74 42 0 51-32 51-76 0-42-9-74-50-73" id="aA"/><path d="M177-190C167-65 218 103 67 71c-23-6-38-20-44-43l32-5c15 47 100 32 89-28v-30C133-14 115 1 83 1 29 1 15-40 15-95c0-56 16-97 71-98 29-1 48 16 59 35 1-10 0-23 2-32h30zM94-22c36 0 50-32 50-73 0-42-14-75-50-75-39 0-46 34-46 75s6 73 46 73" id="aB"/><g id="f"><use transform="matrix(0.05,0,0,0.05,0,0)" xlink:href="#at"/><use transform="matrix(0.05,0,0,0.05,12,0)" xlink:href="#au"/><use transform="matrix(0.05,0,0,0.05,21,0)" xlink:href="#av"/><use transform="matrix(0.05,0,0,0.05,31,0)" xlink:href="#as"/><use transform="matrix(0.05,0,0,0.05,41,0)" xlink:href="#aw"/><use transform="matrix(0.05,0,0,0.05,46,0)" xlink:href="#ax"/><use transform="matrix(0.05,0,0,0.05,58,0)" xlink:href="#ay"/><use transform="matrix(0.05,0,0,0.05,63.95,0)" xlink:href="#az"/><use transform="matrix(0.05,0,0,0.05,67.9,0)" xlink:href="#aA"/><use transform="matrix(0.05,0,0,0.05,77.9,0)" xlink:href="#aB"/><use transform="matrix(0.05,0,0,0.05,87.9,0)" xlink:href="#av"/></g><g id="g"><use transform="matrix(0.05,0,0,0.05,0,0)" xlink:href="#at"/><use transform="matrix(0.05,0,0,0.05,12,0)" xlink:href="#au"/><use transform="matrix(0.05,0,0,0.05,21,0)" xlink:href="#av"/><use transform="matrix(0.05,0,0,0.05,31,0)" xlink:href="#as"/><use transform="matrix(0.05,0,0,0.05,41,0)" xlink:href="#aw"/><use transform="matrix(0.05,0,0,0.05,46,0)" xlink:href="#ax"/><use transform="matrix(0.05,0,0,0.05,58,0)" xlink:href="#ay"/><use transform="matrix(0.05,0,0,0.05,63.95,0)" xlink:href="#az"/><use transform="matrix(0.05,0,0,0.05,67.9,0)" xlink:href="#aA"/><use transform="matrix(0.05,0,0,0.05,77.9,0)" xlink:href="#aB"/><use transform="matrix(0.05,0,0,0.05,87.9,0)" xlink:href="#av"/></g><g id="h"><use transform="matrix(0.05,0,0,0.05,0,0)" xlink:href="#at"/><use transform="matrix(0.05,0,0,0.05,12,0)" xlink:href="#au"/><use transform="matrix(0.05,0,0,0.05,21,0)" xlink:href="#av"/><use transform="matrix(0.05,0,0,0.05,31,0)" xlink:href="#as"/><use transform="matrix(0.05,0,0,0.05,41,0)" xlink:href="#aw"/></g><path d="M233-177c-1 41-23 64-60 70L243 0h-38l-65-103H63V0H30v-248c88 3 205-21 203 71zM63-129c60-2 137 13 137-47 0-61-80-42-137-45v92" id="aC"/><path d="M84 4C-5 8 30-112 23-190h32v120c0 31 7 50 39 49 72-2 45-101 50-169h31l1 190h-30c-1-10 1-25-2-33-11 22-28 36-60 37" id="aD"/><path d="M24 0v-261h32V0H24" id="aE"/><g id="i"><use transform="matrix(0.05,0,0,0.05,0,0)" xlink:href="#aC"/><use transform="matrix(0.05,0,0,0.05,12.950000000000001,0)" xlink:href="#aD"/><use transform="matrix(0.05,0,0,0.05,22.950000000000003,0)" xlink:href="#aE"/><use transform="matrix(0.05,0,0,0.05,26.900000000000002,0)" xlink:href="#av"/></g><path d="M212-179c-10-28-35-45-73-45-59 0-87 40-87 99 0 60 29 101 89 101 43 0 62-24 78-52l27 14C228-24 195 4 139 4 59 4 22-46 18-125c-6-104 99-153 187-111 19 9 31 26 39 46" id="aF"/><path d="M135-143c-3-34-86-38-87 0 15 53 115 12 119 90S17 21 10-45l28-5c4 36 97 45 98 0-10-56-113-15-118-90-4-57 82-63 122-42 12 7 21 19 24 35" id="aG"/><g id="j"><use transform="matrix(0.05,0,0,0.05,0,0)" xlink:href="#aF"/><use transform="matrix(0.05,0,0,0.05,12.950000000000001,0)" xlink:href="#aD"/><use transform="matrix(0.05,0,0,0.05,22.950000000000003,0)" xlink:href="#aG"/><use transform="matrix(0.05,0,0,0.05,31.950000000000003,0)" xlink:href="#aw"/><use transform="matrix(0.05,0,0,0.05,36.95,0)" xlink:href="#ar"/><use transform="matrix(0.05,0,0,0.05,46.95,0)" xlink:href="#ao"/></g><g id="k"><use transform="matrix(0.05,0,0,0.05,0,0)" xlink:href="#at"/><use transform="matrix(0.05,0,0,0.05,12,0)" xlink:href="#au"/><use transform="matrix(0.05,0,0,0.05,21,0)" xlink:href="#av"/><use transform="matrix(0.05,0,0,0.05,31,0)" xlink:href="#as"/><use transform="matrix(0.05,0,0,0.05,41,0)" xlink:href="#aw"/></g><g id="l"><use transform="matrix(0.05,0,0,0.05,0,0)" xlink:href="#ax"/><use transform="matrix(0.05,0,0,0.05,12,0)" xlink:href="#aD"/><use transform="matrix(0.05,0,0,0.05,22,0)" xlink:href="#aG"/></g><linearGradient gradientUnits="userSpaceOnUse" id="m" x1="-64" y1="761.51" x2="56" y2="641.51"><stop offset="0%" stop-color="#b0084d"/><stop offset="100%" stop-color="#ff4f8b"/></linearGradient><path d="M185-189c-5-48-123-54-124 2 14 75 158 14 163 119 3 78-121 87-175 55-17-10-28-26-33-46l33-7c5 56 141 63 141-1 0-78-155-14-162-118-5-82 145-84 179-34 5 7 8 16 11 25" id="aH"/><path d="M115-194c55 1 70 41 70 98S169 2 115 4C84 4 66-9 55-30l1 105H24l-1-265h31l2 30c10-21 28-34 59-34zm-8 174c40 0 45-34 45-75s-6-73-45-74c-42 0-51 32-51 76 0 43 10 73 51 73" id="aI"/><g id="n"><use transform="matrix(0.05,0,0,0.05,0,0)" xlink:href="#aH"/><use transform="matrix(0.05,0,0,0.05,12,0)" xlink:href="#az"/><use transform="matrix(0.05,0,0,0.05,15.949999999999998,0)" xlink:href="#ao"/><use transform="matrix(0.05,0,0,0.05,30.899999999999995,0)" xlink:href="#aI"/><use transform="matrix(0.05,0,0,0.05,40.9,0)" xlink:href="#aE"/><use transform="matrix(0.05,0,0,0.05,44.85,0)" xlink:href="#av"/></g><path d="M190 0L58-211 59 0H30v-248h39L202-35l-2-213h31V0h-41" id="aJ"/><path d="M101-234c-31-9-42 10-38 44h38v23H63V0H32v-167H5v-23h27c-7-52 17-82 69-68v24" id="aK"/><path d="M96-169c-40 0-48 33-48 73s9 75 48 75c24 0 41-14 43-38l32 2c-6 37-31 61-74 61-59 0-76-41-82-99-10-93 101-131 147-64 4 7 5 14 7 22l-32 3c-4-21-16-35-41-35" id="aL"/><g id="o"><use transform="matrix(0.05,0,0,0.05,0,0)" xlink:href="#aJ"/><use transform="matrix(0.05,0,0,0.05,12.950000000000001,0)" xlink:href="#ar"/><use transform="matrix(0.05,0,0,0.05,22.950000000000003,0)" xlink:href="#aw"/><use transform="matrix(0.05,0,0,0.05,27.950000000000003,0)" xlink:href="#az"/><use transform="matrix(0.05,0,0,0.05,31.900000000000002,0)" xlink:href="#aK"/><use transform="matrix(0.05,0,0,0.05,36.900000000000006,0)" xlink:href="#az"/><use transform="matrix(0.05,0,0,0.05,40.85000000000001,0)" xlink:href="#aL"/><use transform="matrix(0.05,0,0,0.05,49.85000000000001,0)" xlink:href="#ap"/><use transform="matrix(0.05,0,0,0.05,59.85,0)" xlink:href="#aw"/><use transform="matrix(0.05,0,0,0.05,64.85000000000001,0)" xlink:href="#az"/><use transform="matrix(0.05,0,0,0.05,68.80000000000001,0)" xlink:href="#ar"/><use transform="matrix(0.05,0,0,0.05,78.80000000000001,0)" xlink:href="#as"/></g><g id="p"><use transform="matrix(0.05,0,0,0.05,0,0)" xlink:href="#aH"/><use transform="matrix(0.05,0,0,0.05,12,0)" xlink:href="#av"/><use transform="matrix(0.05,0,0,0.05,22,0)" xlink:href="#ay"/><use transform="matrix(0.05,0,0,0.05,27.950000000000003,0)" xlink:href="#au"/><use transform="matrix(0.05,0,0,0.05,36.95,0)" xlink:href="#az"/><use transform="matrix(0.05,0,0,0.05,40.900000000000006,0)" xlink:href="#aL"/><use transform="matrix(0.05,0,0,0.05,49.900000000000006,0)" xlink:href="#av"/></g><g id="q"><use transform="matrix(0.05,0,0,0.05,0,0)" xlink:href="#aH"/><use transform="matrix(0.05,0,0,0.05,12,0)" xlink:href="#az"/><use transform="matrix(0.05,0,0,0.05,15.949999999999998,0)" xlink:href="#ao"/><use transform="matrix(0.05,0,0,0.05,30.899999999999995,0)" xlink:href="#aI"/><use transform="matrix(0.05,0,0,0.05,40.9,0)" xlink:href="#aE"/><use transform="matrix(0.05,0,0,0.05,44.85,0)" xlink:href="#av"/></g><g id="r"><use transform="matrix(0.05,0,0,0.05,0,0)" xlink:href="#aJ"/><use transform="matrix(0.05,0,0,0.05,12.950000000000001,0)" xlink:href="#ar"/><use transform="matrix(0.05,0,0,0.05,22.950000000000003,0)" xlink:href="#aw"/><use transform="matrix(0.05,0,0,0.05,27.950000000000003,0)" xlink:href="#az"/><use transform="matrix(0.05,0,0,0.05,31.900000000000002,0)" xlink:href="#aK"/><use transform="matrix(0.05,0,0,0.05,36.900000000000006,0)" xlink:href="#az"/><use transform="matrix(0.05,0,0,0.05,40.85000000000001,0)" xlink:href="#aL"/><use transform="matrix(0.05,0,0,0.05,49.85000000000001,0)" xlink:href="#ap"/><use transform="matrix(0.05,0,0,0.05,59.85,0)" xlink:href="#aw"/><use transform="matrix(0.05,0,0,0.05,64.85000000000001,0)" xlink:href="#az"/><use transform="matrix(0.05,0,0,0.05,68.80000000000001,0)" xlink:href="#ar"/><use transform="matrix(0.05,0,0,0.05,78.80000000000001,0)" xlink:href="#as"/></g><g id="s"><use transform="matrix(0.05,0,0,0.05,0,0)" xlink:href="#aH"/><use transform="matrix(0.05,0,0,0.05,12,0)" xlink:href="#av"/><use transform="matrix(0.05,0,0,0.05,22,0)" xlink:href="#ay"/><use transform="matrix(0.05,0,0,0.05,27.950000000000003,0)" xlink:href="#au"/><use transform="matrix(0.05,0,0,0.05,36.95,0)" xlink:href="#az"/><use transform="matrix(0.05,0,0,0.05,40.900000000000006,0)" xlink:href="#aL"/><use transform="matrix(0.05,0,0,0.05,49.900000000000006,0)" xlink:href="#av"/></g><path d="M127-220V0H93v-220H8v-28h204v28h-85" id="aM"/><g id="t"><use transform="matrix(0.05,0,0,0.05,0,0)" xlink:href="#aM"/><use transform="matrix(0.05,0,0,0.05,8.950000000000001,0)" xlink:href="#ar"/><use transform="matrix(0.05,0,0,0.05,18.950000000000003,0)" xlink:href="#aI"/><use transform="matrix(0.05,0,0,0.05,28.950000000000003,0)" xlink:href="#az"/><use transform="matrix(0.05,0,0,0.05,32.900000000000006,0)" xlink:href="#aL"/></g><linearGradient gradientUnits="userSpaceOnUse" id="u" x1="385.47" y1="1156.43" x2="505.47" y2="1036.43"><stop offset="0%" stop-color="#b0084d"/><stop offset="100%" stop-color="#ff4f8b"/></linearGradient><path d="M266 0h-40l-56-210L115 0H75L2-248h35L96-30l15-64 43-154h32l59 218 59-218h35" id="aN"/><g id="v"><use transform="matrix(0.05,0,0,0.05,0,0)" xlink:href="#an"/><use transform="matrix(0.05,0,0,0.05,11.35,0)" xlink:href="#aN"/><use transform="matrix(0.05,0,0,0.05,28.299999999999997,0)" xlink:href="#aH"/></g><g id="w"><use transform="matrix(0.05,0,0,0.05,0,0)" xlink:href="#aH"/><use transform="matrix(0.05,0,0,0.05,12,0)" xlink:href="#aw"/><use transform="matrix(0.05,0,0,0.05,17,0)" xlink:href="#av"/><use transform="matrix(0.05,0,0,0.05,27,0)" xlink:href="#aI"/></g><path d="M63-220v92h138v28H63V0H30v-248h175v28H63" id="aO"/><g id="x"><use transform="matrix(0.05,0,0,0.05,0,0)" xlink:href="#aO"/><use transform="matrix(0.05,0,0,0.05,10.950000000000001,0)" xlink:href="#aD"/><use transform="matrix(0.05,0,0,0.05,20.950000000000003,0)" xlink:href="#as"/><use transform="matrix(0.05,0,0,0.05,30.950000000000003,0)" xlink:href="#aL"/><use transform="matrix(0.05,0,0,0.05,39.95,0)" xlink:href="#aw"/><use transform="matrix(0.05,0,0,0.05,44.95,0)" xlink:href="#az"/><use transform="matrix(0.05,0,0,0.05,48.900000000000006,0)" xlink:href="#ar"/><use transform="matrix(0.05,0,0,0.05,58.900000000000006,0)" xlink:href="#as"/><use transform="matrix(0.05,0,0,0.05,68.9,0)" xlink:href="#aG"/></g><path fill="#333" d="M24-248c93 1 206-16 204 79-1 75-69 88-152 82V0H24v-248zm52 121c47 0 100 7 100-41 0-47-54-39-100-39v80" id="aP"/><path fill="#333" d="M85 4C-2 5 27-109 22-190h50c7 57-23 150 33 157 60-5 35-97 40-157h50l1 190h-47c-2-12 1-28-3-38-12 25-28 42-61 42" id="aQ"/><path fill="#333" d="M115-3C79 11 28 4 28-45v-112H4v-33h27l15-45h31v45h36v33H77v99c-1 23 16 31 38 25v30" id="aR"/><path fill="#333" d="M24 0v-248h195v40H76v63h132v40H76v65h150V0H24" id="aS"/><path fill="#333" d="M128 0H69L1-190h53L99-40l48-150h52" id="aT"/><path fill="#333" d="M185-48c-13 30-37 53-82 52C43 2 14-33 14-96s30-98 90-98c62 0 83 45 84 108H66c0 31 8 55 39 56 18 0 30-7 34-22zm-45-69c5-46-57-63-70-21-2 6-4 13-4 21h74" id="aU"/><path fill="#333" d="M135-194c87-1 58 113 63 194h-50c-7-57 23-157-34-157-59 0-34 97-39 157H25l-1-190h47c2 12-1 28 3 38 12-26 28-41 61-42" id="aV"/><g id="y"><use transform="matrix(0.04938271604938272,0,0,0.04938271604938272,0,0)" xlink:href="#aP"/><use transform="matrix(0.04938271604938272,0,0,0.04938271604938272,11.851851851851853,0)" xlink:href="#aQ"/><use transform="matrix(0.04938271604938272,0,0,0.04938271604938272,22.666666666666668,0)" xlink:href="#aR"/><use transform="matrix(0.04938271604938272,0,0,0.04938271604938272,28.543209876543212,0)" xlink:href="#aS"/><use transform="matrix(0.04938271604938272,0,0,0.04938271604938272,40.39506172839506,0)" xlink:href="#aT"/><use transform="matrix(0.04938271604938272,0,0,0.04938271604938272,50.27160493827161,0)" xlink:href="#aU"/><use transform="matrix(0.04938271604938272,0,0,0.04938271604938272,60.14814814814815,0)" xlink:href="#aV"/><use transform="matrix(0.04938271604938272,0,0,0.04938271604938272,70.96296296296296,0)" xlink:href="#aR"/></g><path d="M140-251c81 0 123 46 123 126C263-53 228-8 163 1c7 30 30 48 69 40v23c-55 16-95-15-103-61C56-3 17-48 17-125c0-80 42-126 123-126zm0 227c63 0 89-41 89-101s-29-99-89-99c-61 0-89 39-89 99S79-25 140-24" id="aW"/><g id="z"><use transform="matrix(0.05,0,0,0.05,0,0)" xlink:href="#aW"/><use transform="matrix(0.05,0,0,0.05,14,0)" xlink:href="#aD"/><use transform="matrix(0.05,0,0,0.05,24,0)" xlink:href="#av"/><use transform="matrix(0.05,0,0,0.05,34,0)" xlink:href="#aD"/><use transform="matrix(0.05,0,0,0.05,44,0)" xlink:href="#av"/></g><g id="A"><use transform="matrix(0.05,0,0,0.05,0,0)" xlink:href="#aH"/><use transform="matrix(0.05,0,0,0.05,12,0)" xlink:href="#av"/><use transform="matrix(0.05,0,0,0.05,22,0)" xlink:href="#ay"/><use transform="matrix(0.05,0,0,0.05,27.950000000000003,0)" xlink:href="#au"/><use transform="matrix(0.05,0,0,0.05,36.95,0)" xlink:href="#az"/><use transform="matrix(0.05,0,0,0.05,40.900000000000006,0)" xlink:href="#aL"/><use transform="matrix(0.05,0,0,0.05,49.900000000000006,0)" xlink:href="#av"/></g><g id="B"><use transform="matrix(0.05,0,0,0.05,0,0)" xlink:href="#aW"/><use transform="matrix(0.05,0,0,0.05,14,0)" xlink:href="#aD"/><use transform="matrix(0.05,0,0,0.05,24,0)" xlink:href="#av"/><use transform="matrix(0.05,0,0,0.05,34,0)" xlink:href="#aD"/><use transform="matrix(0.05,0,0,0.05,44,0)" xlink:href="#av"/></g><g id="C"><use transform="matrix(0.05,0,0,0.05,0,0)" xlink:href="#aW"/><use transform="matrix(0.05,0,0,0.05,14,0)" xlink:href="#aD"/><use transform="matrix(0.05,0,0,0.05,24,0)" xlink:href="#av"/><use transform="matrix(0.05,0,0,0.05,34,0)" xlink:href="#aD"/><use transform="matrix(0.05,0,0,0.05,44,0)" xlink:href="#av"/></g><path d="M240 0l2-218c-23 76-54 145-80 218h-23L58-218 59 0H30v-248h44l77 211c21-75 51-140 76-211h43V0h-30" id="aX"/><g id="D"><use transform="matrix(0.05,0,0,0.05,0,0)" xlink:href="#aX"/><use transform="matrix(0.05,0,0,0.05,14.950000000000001,0)" xlink:href="#av"/><use transform="matrix(0.05,0,0,0.05,24.950000000000003,0)" xlink:href="#aG"/><use transform="matrix(0.05,0,0,0.05,33.95,0)" xlink:href="#aG"/><use transform="matrix(0.05,0,0,0.05,42.95,0)" xlink:href="#ap"/><use transform="matrix(0.05,0,0,0.05,52.95,0)" xlink:href="#aB"/><use transform="matrix(0.05,0,0,0.05,62.95,0)" xlink:href="#av"/></g><path fill="#3a414a" d="M30 0v-248h33v221h125V0H30" id="aY"/><path fill="#3a414a" d="M141-36C126-15 110 5 73 4 37 3 15-17 15-53c-1-64 63-63 125-63 3-35-9-54-41-54-24 1-41 7-42 31l-33-3c5-37 33-52 76-52 45 0 72 20 72 64v82c-1 20 7 32 28 27v20c-31 9-61-2-59-35zM48-53c0 20 12 33 32 33 41-3 63-29 60-74-43 2-92-5-92 41" id="aZ"/><path fill="#3a414a" d="M210-169c-67 3-38 105-44 169h-31v-121c0-29-5-50-35-48C34-165 62-65 56 0H25l-1-190h30c1 10-1 24 2 32 10-44 99-50 107 0 11-21 27-35 58-36 85-2 47 119 55 194h-31v-121c0-29-5-49-35-48" id="ba"/><path fill="#3a414a" d="M115-194c53 0 69 39 70 98 0 66-23 100-70 100C84 3 66-7 56-30L54 0H23l1-261h32v101c10-23 28-34 59-34zm-8 174c40 0 45-34 45-75 0-40-5-75-45-74-42 0-51 32-51 76 0 43 10 73 51 73" id="bb"/><path fill="#3a414a" d="M85-194c31 0 48 13 60 33l-1-100h32l1 261h-30c-2-10 0-23-3-31C134-8 116 4 85 4 32 4 16-35 15-94c0-66 23-100 70-100zm9 24c-40 0-46 34-46 75 0 40 6 74 45 74 42 0 51-32 51-76 0-42-9-74-50-73" id="bc"/><g id="E"><use transform="matrix(0.06172839506172839,0,0,0.06172839506172839,0,0)" xlink:href="#aY"/><use transform="matrix(0.06172839506172839,0,0,0.06172839506172839,12.345679012345679,0)" xlink:href="#aZ"/><use transform="matrix(0.06172839506172839,0,0,0.06172839506172839,24.691358024691358,0)" xlink:href="#ba"/><use transform="matrix(0.06172839506172839,0,0,0.06172839506172839,43.148148148148145,0)" xlink:href="#bb"/><use transform="matrix(0.06172839506172839,0,0,0.06172839506172839,55.49382716049382,0)" xlink:href="#bc"/><use transform="matrix(0.06172839506172839,0,0,0.06172839506172839,67.8395061728395,0)" xlink:href="#aZ"/></g><path fill="#3a414a" d="M63-220v92h138v28H63V0H30v-248h175v28H63" id="bd"/><path fill="#3a414a" d="M84 4C-5 8 30-112 23-190h32v120c0 31 7 50 39 49 72-2 45-101 50-169h31l1 190h-30c-1-10 1-25-2-33-11 22-28 36-60 37" id="be"/><path fill="#3a414a" d="M117-194c89-4 53 116 60 194h-32v-121c0-31-8-49-39-48C34-167 62-67 57 0H25l-1-190h30c1 10-1 24 2 32 11-22 29-35 61-36" id="bf"/><path fill="#3a414a" d="M96-169c-40 0-48 33-48 73s9 75 48 75c24 0 41-14 43-38l32 2c-6 37-31 61-74 61-59 0-76-41-82-99-10-93 101-131 147-64 4 7 5 14 7 22l-32 3c-4-21-16-35-41-35" id="bg"/><path fill="#3a414a" d="M59-47c-2 24 18 29 38 22v24C64 9 27 4 27-40v-127H5v-23h24l9-43h21v43h35v23H59v120" id="bh"/><path fill="#3a414a" d="M24-231v-30h32v30H24zM24 0v-190h32V0H24" id="bi"/><path fill="#3a414a" d="M100-194c62-1 85 37 85 99 1 63-27 99-86 99S16-35 15-95c0-66 28-99 85-99zM99-20c44 1 53-31 53-75 0-43-8-75-51-75s-53 32-53 75 10 74 51 75" id="bj"/><g id="F"><use transform="matrix(0.06172839506172839,0,0,0.06172839506172839,0,0)" xlink:href="#bd"/><use transform="matrix(0.06172839506172839,0,0,0.06172839506172839,13.518518518518517,0)" xlink:href="#be"/><use transform="matrix(0.06172839506172839,0,0,0.06172839506172839,25.864197530864196,0)" xlink:href="#bf"/><use transform="matrix(0.06172839506172839,0,0,0.06172839506172839,38.20987654320987,0)" xlink:href="#bg"/><use transform="matrix(0.06172839506172839,0,0,0.06172839506172839,49.32098765432099,0)" xlink:href="#bh"/><use transform="matrix(0.06172839506172839,0,0,0.06172839506172839,55.49382716049383,0)" xlink:href="#bi"/><use transform="matrix(0.06172839506172839,0,0,0.06172839506172839,60.370370370370374,0)" xlink:href="#bj"/><use transform="matrix(0.06172839506172839,0,0,0.06172839506172839,72.71604938271605,0)" xlink:href="#bf"/></g><path d="M101-251c82-7 93 87 43 132L82-64C71-53 59-42 53-27h129V0H18c2-99 128-94 128-182 0-28-16-43-45-43s-46 15-49 41l-32-3c6-41 34-60 81-64" id="bk"/><g id="G"><use transform="matrix(0.05,0,0,0.05,0,0)" xlink:href="#at"/><use transform="matrix(0.05,0,0,0.05,12,0)" xlink:href="#aF"/><use transform="matrix(0.05,0,0,0.05,24.950000000000003,0)" xlink:href="#bk"/></g><path d="M33 0v-248h34V0H33" id="bl"/><g id="H"><use transform="matrix(0.05,0,0,0.05,0,0)" xlink:href="#bl"/><use transform="matrix(0.05,0,0,0.05,5,0)" xlink:href="#as"/><use transform="matrix(0.05,0,0,0.05,15,0)" xlink:href="#aG"/><use transform="matrix(0.05,0,0,0.05,24,0)" xlink:href="#aw"/><use transform="matrix(0.05,0,0,0.05,29,0)" xlink:href="#ap"/><use transform="matrix(0.05,0,0,0.05,39,0)" xlink:href="#as"/><use transform="matrix(0.05,0,0,0.05,49,0)" xlink:href="#aL"/><use transform="matrix(0.05,0,0,0.05,58,0)" xlink:href="#av"/></g><path d="M30-248c118-7 216 8 213 122C240-48 200 0 122 0H30v-248zM63-27c89 8 146-16 146-99s-60-101-146-95v194" id="bm"/><path d="M194 0L95-120 63-95V0H30v-248h33v124l119-124h40L117-140 236 0h-42" id="bn"/><g id="I"><use transform="matrix(0.05,0,0,0.05,0,0)" xlink:href="#aH"/><use transform="matrix(0.05,0,0,0.05,12,0)" xlink:href="#bm"/><use transform="matrix(0.05,0,0,0.05,24.950000000000003,0)" xlink:href="#bn"/></g><path fill="#3a414a" d="M212-179c-10-28-35-45-73-45-59 0-87 40-87 99 0 60 29 101 89 101 43 0 62-24 78-52l27 14C228-24 195 4 139 4 59 4 22-46 18-125c-6-104 99-153 187-111 19 9 31 26 39 46" id="bo"/><path fill="#3a414a" d="M135-143c-3-34-86-38-87 0 15 53 115 12 119 90S17 21 10-45l28-5c4 36 97 45 98 0-10-56-113-15-118-90-4-57 82-63 122-42 12 7 21 19 24 35" id="bp"/><g id="J"><use transform="matrix(0.06172839506172839,0,0,0.06172839506172839,0,0)" xlink:href="#bo"/><use transform="matrix(0.06172839506172839,0,0,0.06172839506172839,15.987654320987653,0)" xlink:href="#be"/><use transform="matrix(0.06172839506172839,0,0,0.06172839506172839,28.333333333333332,0)" xlink:href="#bp"/><use transform="matrix(0.06172839506172839,0,0,0.06172839506172839,39.44444444444444,0)" xlink:href="#bh"/><use transform="matrix(0.06172839506172839,0,0,0.06172839506172839,45.617283950617285,0)" xlink:href="#bj"/><use transform="matrix(0.06172839506172839,0,0,0.06172839506172839,57.96296296296296,0)" xlink:href="#ba"/></g><path fill="#3a414a" d="M100-194c63 0 86 42 84 106H49c0 40 14 67 53 68 26 1 43-12 49-29l28 8c-11 28-37 45-77 45C44 4 14-33 15-96c1-61 26-98 85-98zm52 81c6-60-76-77-97-28-3 7-6 17-6 28h103" id="bq"/><g id="K"><use transform="matrix(0.06172839506172839,0,0,0.06172839506172839,0,0)" xlink:href="#bo"/><use transform="matrix(0.06172839506172839,0,0,0.06172839506172839,15.987654320987653,0)" xlink:href="#bj"/><use transform="matrix(0.06172839506172839,0,0,0.06172839506172839,28.333333333333332,0)" xlink:href="#bc"/><use transform="matrix(0.06172839506172839,0,0,0.06172839506172839,40.67901234567901,0)" xlink:href="#bq"/></g><path fill="#3a414a" d="M30-248c118-7 216 8 213 122C240-48 200 0 122 0H30v-248zM63-27c89 8 146-16 146-99s-60-101-146-95v194" id="br"/><path fill="#3a414a" d="M114-163C36-179 61-72 57 0H25l-1-190h30c1 12-1 29 2 39 6-27 23-49 58-41v29" id="bs"/><g id="L"><use transform="matrix(0.06172839506172839,0,0,0.06172839506172839,0,0)" xlink:href="#br"/><use transform="matrix(0.06172839506172839,0,0,0.06172839506172839,15.987654320987653,0)" xlink:href="#bi"/><use transform="matrix(0.06172839506172839,0,0,0.06172839506172839,20.864197530864196,0)" xlink:href="#bs"/><use transform="matrix(0.06172839506172839,0,0,0.06172839506172839,28.209876543209873,0)" xlink:href="#bq"/><use transform="matrix(0.06172839506172839,0,0,0.06172839506172839,40.55555555555555,0)" xlink:href="#bg"/><use transform="matrix(0.06172839506172839,0,0,0.06172839506172839,51.66666666666666,0)" xlink:href="#bh"/></g><path fill="#3a414a" d="M30-248c87 1 191-15 191 75 0 78-77 80-158 76V0H30v-248zm33 125c57 0 124 11 124-50 0-59-68-47-124-48v98" id="bt"/><path fill="#3a414a" d="M24 0v-261h32V0H24" id="bu"/><path fill="#3a414a" d="M106-169C34-169 62-67 57 0H25v-261h32l-1 103c12-21 28-36 61-36 89 0 53 116 60 194h-32v-121c2-32-8-49-39-48" id="bv"/><g id="M"><use transform="matrix(0.06172839506172839,0,0,0.06172839506172839,0,0)" xlink:href="#bt"/><use transform="matrix(0.06172839506172839,0,0,0.06172839506172839,14.814814814814813,0)" xlink:href="#be"/><use transform="matrix(0.06172839506172839,0,0,0.06172839506172839,27.160493827160494,0)" xlink:href="#bb"/><use transform="matrix(0.06172839506172839,0,0,0.06172839506172839,39.50617283950617,0)" xlink:href="#bu"/><use transform="matrix(0.06172839506172839,0,0,0.06172839506172839,44.382716049382715,0)" xlink:href="#bi"/><use transform="matrix(0.06172839506172839,0,0,0.06172839506172839,49.25925925925926,0)" xlink:href="#bp"/><use transform="matrix(0.06172839506172839,0,0,0.06172839506172839,60.37037037037037,0)" xlink:href="#bv"/></g><path fill="#3a414a" d="M190 0L58-211 59 0H30v-248h39L202-35l-2-213h31V0h-41" id="bw"/><path fill="#3a414a" d="M16-82v-28h88v28H16" id="bx"/><path fill="#3a414a" d="M205 0l-28-72H64L36 0H1l101-248h38L239 0h-34zm-38-99l-47-123c-12 45-31 82-46 123h93" id="by"/><path fill="#3a414a" d="M266 0h-40l-56-210L115 0H75L2-248h35L96-30l15-64 43-154h32l59 218 59-218h35" id="bz"/><path fill="#3a414a" d="M185-189c-5-48-123-54-124 2 14 75 158 14 163 119 3 78-121 87-175 55-17-10-28-26-33-46l33-7c5 56 141 63 141-1 0-78-155-14-162-118-5-82 145-84 179-34 5 7 8 16 11 25" id="bA"/><g id="N"><use transform="matrix(0.06172839506172839,0,0,0.06172839506172839,0,0)" xlink:href="#bw"/><use transform="matrix(0.06172839506172839,0,0,0.06172839506172839,15.987654320987653,0)" xlink:href="#bj"/><use transform="matrix(0.06172839506172839,0,0,0.06172839506172839,28.333333333333332,0)" xlink:href="#bf"/><use transform="matrix(0.06172839506172839,0,0,0.06172839506172839,40.67901234567901,0)" xlink:href="#bx"/><use transform="matrix(0.06172839506172839,0,0,0.06172839506172839,48.02469135802469,0)" xlink:href="#by"/><use transform="matrix(0.06172839506172839,0,0,0.06172839506172839,62.03703703703704,0)" xlink:href="#bz"/><use transform="matrix(0.06172839506172839,0,0,0.06172839506172839,82.96296296296296,0)" xlink:href="#bA"/></g><g id="O"><use transform="matrix(0.06172839506172839,0,0,0.06172839506172839,0,0)" xlink:href="#bt"/><use transform="matrix(0.06172839506172839,0,0,0.06172839506172839,14.814814814814813,0)" xlink:href="#be"/><use transform="matrix(0.06172839506172839,0,0,0.06172839506172839,27.160493827160494,0)" xlink:href="#bb"/><use transform="matrix(0.06172839506172839,0,0,0.06172839506172839,39.50617283950617,0)" xlink:href="#bu"/><use transform="matrix(0.06172839506172839,0,0,0.06172839506172839,44.382716049382715,0)" xlink:href="#bi"/><use transform="matrix(0.06172839506172839,0,0,0.06172839506172839,49.25925925925926,0)" xlink:href="#bp"/><use transform="matrix(0.06172839506172839,0,0,0.06172839506172839,60.37037037037037,0)" xlink:href="#bv"/><use transform="matrix(0.06172839506172839,0,0,0.06172839506172839,72.71604938271605,0)" xlink:href="#bq"/><use transform="matrix(0.06172839506172839,0,0,0.06172839506172839,85.06172839506173,0)" xlink:href="#bs"/></g><linearGradient gradientUnits="userSpaceOnUse" id="P" x1="813.54" y1="1399.92" x2="933.54" y2="1279.92"><stop offset="0%" stop-color="#b0084d"/><stop offset="100%" stop-color="#ff4f8b"/></linearGradient><path d="M30-248c87 1 191-15 191 75 0 78-77 80-158 76V0H30v-248zm33 125c57 0 124 11 124-50 0-59-68-47-124-48v98" id="bB"/><g id="Q"><use transform="matrix(0.05,0,0,0.05,0,0)" xlink:href="#an"/><use transform="matrix(0.05,0,0,0.05,12,0)" xlink:href="#bB"/><use transform="matrix(0.05,0,0,0.05,24,0)" xlink:href="#bl"/></g><path d="M143 4C61 4 22-44 18-125c-5-107 100-154 193-111 17 8 29 25 37 43l-32 9c-13-25-37-40-76-40-61 0-88 39-88 99 0 61 29 100 91 101 35 0 62-11 79-27v-45h-74v-28h105v86C228-13 192 4 143 4" id="bC"/><path d="M206 0h-36l-40-164L89 0H53L-1-190h32L70-26l43-164h34l41 164 42-164h31" id="bD"/><path d="M179-190L93 31C79 59 56 82 12 73V49c39 6 53-20 64-50L1-190h34L92-34l54-156h33" id="bE"/><g id="R"><use transform="matrix(0.05,0,0,0.05,0,0)" xlink:href="#bC"/><use transform="matrix(0.05,0,0,0.05,14,0)" xlink:href="#ap"/><use transform="matrix(0.05,0,0,0.05,24,0)" xlink:href="#aw"/><use transform="matrix(0.05,0,0,0.05,29,0)" xlink:href="#av"/><use transform="matrix(0.05,0,0,0.05,39,0)" xlink:href="#bD"/><use transform="matrix(0.05,0,0,0.05,51.95,0)" xlink:href="#ap"/><use transform="matrix(0.05,0,0,0.05,61.95,0)" xlink:href="#bE"/></g><linearGradient gradientUnits="userSpaceOnUse" id="S" x1="-64" y1="1156.43" x2="56" y2="1036.43"><stop offset="0%" stop-color="#b0084d"/><stop offset="100%" stop-color="#ff4f8b"/></linearGradient><g id="T"><use transform="matrix(0.05,0,0,0.05,0,0)" xlink:href="#an"/><use transform="matrix(0.05,0,0,0.05,12,0)" xlink:href="#ao"/><use transform="matrix(0.05,0,0,0.05,26.950000000000003,0)" xlink:href="#ap"/><use transform="matrix(0.05,0,0,0.05,36.95,0)" xlink:href="#aq"/><use transform="matrix(0.05,0,0,0.05,45.95,0)" xlink:href="#ar"/><use transform="matrix(0.05,0,0,0.05,55.95,0)" xlink:href="#as"/></g><g id="U"><use transform="matrix(0.05,0,0,0.05,0,0)" xlink:href="#an"/><use transform="matrix(0.05,0,0,0.05,12,0)" xlink:href="#bB"/><use transform="matrix(0.05,0,0,0.05,24,0)" xlink:href="#bl"/></g><g id="V"><use transform="matrix(0.05,0,0,0.05,0,0)" xlink:href="#bC"/><use transform="matrix(0.05,0,0,0.05,14,0)" xlink:href="#ap"/><use transform="matrix(0.05,0,0,0.05,24,0)" xlink:href="#aw"/><use transform="matrix(0.05,0,0,0.05,29,0)" xlink:href="#av"/><use transform="matrix(0.05,0,0,0.05,39,0)" xlink:href="#bD"/><use transform="matrix(0.05,0,0,0.05,51.95,0)" xlink:href="#ap"/><use transform="matrix(0.05,0,0,0.05,61.95,0)" xlink:href="#bE"/></g><g id="W"><use transform="matrix(0.06172839506172839,0,0,0.06172839506172839,0,0)" xlink:href="#aY"/><use transform="matrix(0.06172839506172839,0,0,0.06172839506172839,12.345679012345679,0)" xlink:href="#aZ"/><use transform="matrix(0.06172839506172839,0,0,0.06172839506172839,24.691358024691358,0)" xlink:href="#ba"/><use transform="matrix(0.06172839506172839,0,0,0.06172839506172839,43.148148148148145,0)" xlink:href="#bb"/><use transform="matrix(0.06172839506172839,0,0,0.06172839506172839,55.49382716049382,0)" xlink:href="#bc"/><use transform="matrix(0.06172839506172839,0,0,0.06172839506172839,67.8395061728395,0)" xlink:href="#aZ"/></g><g id="X"><use transform="matrix(0.06172839506172839,0,0,0.06172839506172839,0,0)" xlink:href="#bd"/><use transform="matrix(0.06172839506172839,0,0,0.06172839506172839,13.518518518518517,0)" xlink:href="#be"/><use transform="matrix(0.06172839506172839,0,0,0.06172839506172839,25.864197530864196,0)" xlink:href="#bf"/><use transform="matrix(0.06172839506172839,0,0,0.06172839506172839,38.20987654320987,0)" xlink:href="#bg"/><use transform="matrix(0.06172839506172839,0,0,0.06172839506172839,49.32098765432099,0)" xlink:href="#bh"/><use transform="matrix(0.06172839506172839,0,0,0.06172839506172839,55.49382716049383,0)" xlink:href="#bi"/><use transform="matrix(0.06172839506172839,0,0,0.06172839506172839,60.370370370370374,0)" xlink:href="#bj"/><use transform="matrix(0.06172839506172839,0,0,0.06172839506172839,72.71604938271605,0)" xlink:href="#bf"/></g></defs></g></svg>